<svg viewBox="0 0 148 190" fill="none" xmlns="http://www.w3.org/2000/svg">
<g clip-path="url(#clip0_1797_23894)">
<path d="M174.657 128.575C169.191 118.502 159.762 113.046 153.591 116.395C153.125 116.651 152.691 116.953 152.292 117.285L145.512 121.33L148.585 126.366C148.431 130.692 149.659 135.784 152.323 140.693C154.987 145.602 158.586 149.406 162.293 151.635L165.949 157.52L173.384 152.873C179.555 149.524 180.123 138.648 174.657 128.575Z" fill="#3A4D25" stroke="#003D0D" stroke-width="1.02263" stroke-linejoin="round"/>
<path d="M165.946 157.52C172.115 154.174 172.685 143.296 167.221 133.223C161.756 123.151 152.326 117.698 146.158 121.044C139.989 124.39 139.419 135.269 144.883 145.341C150.348 155.414 159.778 160.867 165.946 157.52Z" fill="url(#paint0_radial_1797_23894)" stroke="#003D0D" stroke-width="1.02263" stroke-linejoin="round"/>
<path d="M127.161 166.934L156.178 145.152" stroke="#40FF00" stroke-width="1.02263" stroke-miterlimit="10"/>
<path d="M127.094 168.718C126.573 168.698 126.067 168.452 125.729 168.002C125.136 167.21 125.294 166.09 126.087 165.497L155.104 143.715C155.892 143.122 157.017 143.28 157.61 144.073C158.203 144.865 158.044 145.985 157.252 146.578L128.235 168.36C127.892 168.616 127.488 168.734 127.094 168.718Z" fill="#C2FF00" stroke="#40FF00" stroke-width="1.02263" stroke-miterlimit="10"/>
<path d="M119.593 157.403L148.61 135.616" stroke="#1BEB00" stroke-width="1.02263" stroke-miterlimit="10"/>
<path d="M119.527 159.187C119.005 159.167 118.499 158.922 118.162 158.472C117.568 157.679 117.727 156.559 118.519 155.966L147.537 134.184C148.324 133.591 149.449 133.749 150.042 134.542C150.635 135.335 150.477 136.454 149.684 137.047L120.667 158.829C120.324 159.085 119.92 159.203 119.527 159.187Z" fill="#88FF00" stroke="#1BEB00" stroke-width="1.02263" stroke-miterlimit="10"/>
<path d="M127.687 163.017L156.705 141.235" stroke="#40FF00" stroke-width="1.02263" stroke-miterlimit="10"/>
<path d="M127.621 164.802C127.099 164.781 126.593 164.536 126.256 164.086C125.663 163.293 125.821 162.174 126.614 161.58L155.631 139.798C156.423 139.205 157.543 139.364 158.136 140.156C158.729 140.949 158.571 142.069 157.778 142.662L128.761 164.444C128.419 164.699 128.015 164.817 127.621 164.802Z" fill="#C2FF00" stroke="#40FF00" stroke-width="1.02263" stroke-miterlimit="10"/>
<path d="M124.395 157.587L153.412 135.805" stroke="#1BEB00" stroke-width="1.02263" stroke-miterlimit="10"/>
<path d="M124.328 159.377C123.807 159.356 123.3 159.111 122.963 158.661C122.37 157.868 122.528 156.748 123.321 156.155L152.338 134.373C153.131 133.78 154.25 133.939 154.843 134.731C155.437 135.524 155.278 136.643 154.486 137.237L125.468 159.019C125.126 159.274 124.722 159.392 124.328 159.377Z" fill="#88FF00" stroke="#1BEB00" stroke-width="1.02263" stroke-miterlimit="10"/>
<path d="M128.449 158.129L157.466 136.347" stroke="#40FF00" stroke-width="1.02263" stroke-miterlimit="10"/>
<path d="M128.383 159.919C127.861 159.898 127.355 159.653 127.018 159.203C126.424 158.41 126.583 157.29 127.375 156.697L156.393 134.915C157.185 134.322 158.305 134.481 158.898 135.273C159.491 136.066 159.333 137.185 158.54 137.779L129.523 159.561C129.18 159.816 128.776 159.934 128.383 159.919Z" fill="#C2FF00" stroke="#40FF00" stroke-width="1.02263" stroke-miterlimit="10"/>
<path d="M124.18 154.933L153.202 133.151" stroke="#40FF00" stroke-width="1.02263" stroke-miterlimit="10"/>
<path d="M124.113 156.723C123.592 156.702 123.085 156.457 122.748 156.007C122.155 155.214 122.313 154.095 123.106 153.502L152.123 131.72C152.916 131.126 154.035 131.285 154.629 132.077C155.222 132.87 155.063 133.99 154.271 134.583L125.253 156.365C124.911 156.621 124.507 156.738 124.113 156.723Z" fill="#C2FF00" stroke="#40FF00" stroke-width="1.02263" stroke-miterlimit="10"/>
<path d="M93.5161 188.629C87.503 188.629 81.311 186.098 76.5558 181.532C70.4864 175.703 67.8941 167.639 69.4331 159.402C72.4601 143.224 62.7707 135.12 62.3565 134.782L64.2842 132.394C64.7546 132.773 75.8195 141.92 72.4448 159.965C71.1 167.164 73.3703 174.22 78.6777 179.318C83.9136 184.349 91.0874 186.574 97.3919 185.132C110.149 182.207 123.658 160.645 123.796 160.43L126.404 162.046C125.826 162.976 112.082 184.912 98.077 188.123C96.584 188.465 95.0552 188.634 93.511 188.634L93.5161 188.629Z" fill="#C2FF00" stroke="#40FF00" stroke-width="1.02263" stroke-miterlimit="10"/>
<path d="M122.426 178.725C135.201 178.725 145.558 168.368 145.558 155.593C145.558 142.817 135.201 132.461 122.426 132.461C109.651 132.461 99.294 142.817 99.294 155.593C99.294 168.368 109.651 178.725 122.426 178.725Z" fill="url(#paint1_linear_1797_23894)" stroke="#003D0D" stroke-width="1.02263" stroke-linejoin="round"/>
<path d="M118.535 168.851C128.139 168.851 135.925 161.066 135.925 151.461C135.925 141.857 128.139 134.072 118.535 134.072C108.931 134.072 101.145 141.857 101.145 151.461C101.145 161.066 108.931 168.851 118.535 168.851Z" fill="url(#paint2_radial_1797_23894)"/>
<path d="M102.393 141.204L112.409 155.03" stroke="#40FF00" stroke-width="1.02263" stroke-miterlimit="10"/>
<path d="M112.409 157.076C111.775 157.076 111.151 156.784 110.753 156.232L100.736 142.411C100.071 141.496 100.276 140.218 101.191 139.553C102.106 138.893 103.384 139.093 104.049 140.008L114.066 153.829C114.731 154.744 114.526 156.022 113.611 156.687C113.248 156.948 112.828 157.076 112.414 157.076H112.409Z" fill="#C2FF00" stroke="#40FF00" stroke-width="1.02263" stroke-miterlimit="10"/>
<path d="M109.167 143.04L119.179 156.861" stroke="#40FF00" stroke-width="1.02263" stroke-miterlimit="10"/>
<path d="M119.184 158.906C118.55 158.906 117.926 158.615 117.528 158.063L107.511 144.242C106.846 143.326 107.051 142.048 107.966 141.383C108.881 140.719 110.159 140.923 110.824 141.838L120.841 155.659C121.506 156.575 121.301 157.853 120.386 158.518C120.023 158.778 119.603 158.906 119.189 158.906H119.184Z" fill="#C2FF00" stroke="#40FF00" stroke-width="1.02263" stroke-miterlimit="10"/>
<path d="M113.677 140.78L123.694 154.606" stroke="#40FF00" stroke-width="1.02263" stroke-miterlimit="10"/>
<path d="M123.694 156.651C123.06 156.651 122.436 156.36 122.037 155.808L112.021 141.982C111.356 141.066 111.56 139.788 112.476 139.123C113.391 138.459 114.669 138.663 115.334 139.578L125.351 153.404C126.015 154.32 125.811 155.598 124.896 156.263C124.533 156.523 124.113 156.651 123.699 156.651H123.694Z" fill="#C2FF00" stroke="#40FF00" stroke-width="1.02263" stroke-miterlimit="10"/>
<path d="M115.232 134.716L125.243 148.542" stroke="#40FF00" stroke-width="1.02263" stroke-miterlimit="10"/>
<path d="M125.248 150.587C124.614 150.587 123.991 150.296 123.592 149.743L113.575 135.917C112.91 135.002 113.115 133.724 114.03 133.059C114.945 132.394 116.224 132.599 116.888 133.514L126.905 147.34C127.57 148.255 127.365 149.534 126.45 150.198C126.087 150.459 125.668 150.587 125.254 150.587H125.248Z" fill="#C2FF00" stroke="#40FF00" stroke-width="1.02263" stroke-miterlimit="10"/>
<path d="M87.5848 154.463L112.036 152.765C119.419 152.254 125.852 147.55 128.587 140.673L141.605 107.918L112.828 31.1845L56.9723 76.1803L87.5797 154.463H87.5848Z" fill="url(#paint3_linear_1797_23894)" stroke="#003D0D" stroke-width="1.02263" stroke-linejoin="round"/>
<path d="M107.7 128.508C107.7 128.508 101.702 140.923 108.871 147.412C116.04 153.9 124.236 143.884 125.698 136.551C127.161 129.219 127.309 118.072 115.017 121.038" stroke="#003D0D" stroke-width="1.02263" stroke-linecap="round" stroke-linejoin="round"/>
<path d="M0.978088 61.5106L33.8455 137.963L87.5848 154.463L56.9774 76.1803L0.978088 61.5106Z" fill="url(#paint4_linear_1797_23894)" stroke="#003D0D" stroke-width="1.02263" stroke-linejoin="round"/>
<path d="M0.978088 61.5107L56.9774 76.1803L112.834 30.7601L53.5925 18.6317L0.978088 61.5107Z" fill="url(#paint5_linear_1797_23894)" stroke="#003D0D" stroke-width="1.02263" stroke-linejoin="round"/>
<path d="M17.059 57.5582L55.0037 26.1071L94.3546 34.8506L55.0037 67.4368L17.059 57.5582Z" stroke="#003D0D" stroke-width="0.511316" stroke-linejoin="round"/>
<path d="M24.7185 48.5181C24.7185 48.5181 20.6024 57.1031 28.3948 60.2068C36.1873 63.3156 63.3944 61.6845 78.3964 46.1456C93.3985 30.6067 73.6923 23.208 60.0146 24.3891C46.3369 25.5754 31.1917 33.4139 24.7185 48.513V48.5181Z" fill="#4DB757" stroke="#003D0D" stroke-width="1.02263" stroke-linejoin="round"/>
<path d="M25.0969 46.4166C25.0969 46.4166 21.1495 54.5977 28.625 57.5582C36.1004 60.5187 62.198 58.9694 76.5813 44.1566C90.9698 29.3438 72.0664 22.2927 58.9511 23.4227C45.8359 24.5528 31.3043 32.0282 25.0969 46.4166Z" fill="#A3CE57" stroke="#003D0D" stroke-width="1.02263" stroke-miterlimit="10"/>
<path d="M44.1383 27.6565C44.1383 27.6565 35.9572 30.8982 35.9572 35.4131C35.9572 39.9281 45.1251 38.9412 51.7569 35.6944C58.3887 32.4475 60.9248 26.8077 57.5399 25.3965C54.155 23.9852 49.502 25.3965 44.1383 27.6514V27.6565Z" fill="#D1DD3B" stroke="#003D0D" stroke-width="1.02263" stroke-linejoin="round"/>
<path d="M44.2764 27.2627C44.2764 27.2627 38.0741 29.5688 38.0741 32.7747C38.0741 35.9807 45.0229 35.2802 50.0491 32.9741C55.0754 30.6681 56.9979 26.6645 54.4311 25.6623C51.8643 24.6601 48.3362 25.6623 44.2764 27.2679V27.2627Z" fill="#A3CE57" stroke="#003D0D" stroke-width="1.02263" stroke-miterlimit="10"/>
<path d="M44.936 29.7886C44.936 29.7886 40.1961 31.5424 40.3341 33.5315C40.4722 35.5205 45.8563 34.7228 49.6759 33.0304C53.4954 31.3379 54.8299 28.7506 52.7898 28.2649C50.7496 27.7791 48.0397 28.5819 44.9411 29.7886H44.936Z" fill="#4DB757" stroke="#003D0D" stroke-width="1.02263" stroke-linejoin="round"/>
<path d="M45.703 31.6754C45.703 31.6754 41.8681 33.1684 42.0624 34.3445C42.2567 35.5205 46.6642 34.5388 49.7423 33.1684C52.8256 31.7981 53.8175 30.1312 52.1149 30.029C50.4122 29.9267 48.2135 30.663 45.703 31.6754Z" fill="#003D0D" stroke="#003D0D" stroke-width="1.02263" stroke-linejoin="round"/>
<path d="M76.1666 25.7384C79.2523 24.0532 79.7753 19.0647 77.3349 14.5961C74.8945 10.1275 70.4148 7.87109 67.3292 9.55622C64.2436 11.2414 63.7205 16.2299 66.1609 20.6985C68.6013 25.1671 73.081 27.4235 76.1666 25.7384Z" fill="#2E693F" stroke="#003D0D" stroke-width="1.02263" stroke-miterlimit="10"/>
<path d="M74.9729 26.1325C77.5876 24.7045 77.7651 19.9908 75.3694 15.604C72.9737 11.2172 68.9119 8.81858 66.2972 10.2465C63.6825 11.6745 63.5049 16.3883 65.9007 20.7751C68.2964 25.1619 72.3582 27.5605 74.9729 26.1325Z" fill="#2E693F" stroke="#003D0D" stroke-width="1.02263" stroke-miterlimit="10"/>
<path d="M51.9 1.77358L53.4493 0.577104C53.4493 0.577104 57.9642 -0.128512 70.3739 8.615L76.7193 27.0224L74.04 28.6432L51.9 1.77358Z" fill="#3F8F56" stroke="#003D0D" stroke-width="1.02263" stroke-miterlimit="10"/>
<path d="M59.5136 10.8699L68.2622 11.013L72.9152 26.1071L59.5136 10.8699Z" fill="#A3CE57" stroke="#003D0D" stroke-width="1.02263" stroke-miterlimit="10"/>
<path d="M55.423 8.33384C55.423 8.33384 49.7832 2.76049 51.8949 1.77365C54.0067 0.786809 68.4002 9.88312 68.4002 9.88312L56.6911 9.45873L55.423 8.32872V8.33384Z" fill="#A3CE57" stroke="#003D0D" stroke-width="1.02263" stroke-miterlimit="10"/>
<path d="M39.6285 44.2997L30.1794 32.1713C30.1794 32.1713 33.8455 19.6185 33.1399 15.1036L31.4474 14.5411L23.5476 35.8426L33.4211 50.3691L39.6285 44.3049V44.2997Z" fill="#A3CE57" stroke="#003D0D" stroke-width="1.02263" stroke-miterlimit="10" stroke-linecap="round"/>
<path d="M24.2532 49.8015L33.4211 50.364L27.495 35.1319C27.495 35.1319 32.4343 18.2073 31.4423 14.5361C31.4423 14.5361 25.5162 14.6792 18.322 30.8982L24.2481 49.8015H24.2532Z" fill="#D1DD3B" stroke="#003D0D" stroke-width="1.02263" stroke-miterlimit="10" stroke-linecap="round"/>
<path d="M56.9774 46.6979L50.0644 43.5942L53.7306 25.2584C53.7306 25.2584 46.2551 16.5149 44.9871 8.75309L45.6927 6.07379L62.9036 16.3717C62.9036 16.3717 59.9431 41.1961 59.7999 41.6205C59.6567 42.0449 56.9774 46.6979 56.9774 46.6979Z" fill="#A3CE57" stroke="#003D0D" stroke-width="1.02263" stroke-linejoin="round"/>
<path d="M56.9774 46.6978L57.1206 23.2847C57.1206 23.2847 47.3903 15.528 45.6978 6.07375C45.6978 6.07375 54.8197 5.07669 68.5281 15.0269L74.0503 34.7075L56.9826 46.6978H56.9774Z" fill="#D1DD3B" stroke="#003D0D" stroke-width="1.02263" stroke-linejoin="round"/>
<path d="M14.0065 30.6374C13.5668 32.0384 14.0781 33.5161 15.1467 33.9456C15.4228 34.0581 15.7092 34.0837 15.9904 34.0428L29.3153 35.5563L29.9187 30.2897L16.7369 28.8785C15.6683 28.449 14.4462 29.2364 14.0065 30.6374Z" fill="#4DB757" stroke="#003D0D" stroke-width="1.02263" stroke-miterlimit="10"/>
<path d="M31.6487 33.3078C31.9183 31.8586 31.2276 30.5146 30.106 30.3059C28.9844 30.0972 27.8566 31.1029 27.5869 32.5521C27.3173 34.0013 28.0079 35.3453 29.1296 35.554C30.2512 35.7627 31.379 34.7571 31.6487 33.3078Z" fill="#3F8F56" stroke="#003D0D" stroke-width="1.02263" stroke-miterlimit="10"/>
<path d="M71.4477 17.1182C71.1256 15.6763 69.8115 14.7406 68.523 15.0269C68.1906 15.1036 67.8889 15.2519 67.6333 15.4616L53.5925 22.2979L55.8474 27.094L69.6939 20.2577C70.9875 19.9662 71.7698 18.5601 71.4477 17.1182Z" fill="#3F8F56" stroke="#003D0D" stroke-width="1.02263" stroke-miterlimit="10"/>
<path d="M72.6205 32.1223C73.4381 26.8709 71.131 22.1514 67.4673 21.581C63.8036 21.0106 60.1708 24.8052 59.3532 30.0565C58.5355 35.3079 60.8427 40.0274 64.5063 40.5978C68.17 41.1683 71.8028 37.3736 72.6205 32.1223Z" fill="#3F8F56" stroke="#003D0D" stroke-width="1.02263" stroke-miterlimit="10"/>
<path d="M73.3118 32.2055C74.1142 27.0518 72.2494 22.4823 69.1466 21.9992C66.0438 21.5161 62.8779 25.3023 62.0755 30.456C61.2731 35.6097 63.1379 40.1792 66.2407 40.6624C69.3435 41.1455 72.5094 37.3592 73.3118 32.2055Z" fill="#3F8F56" stroke="#003D0D" stroke-width="1.02263" stroke-miterlimit="10"/>
<path d="M28.0079 50.3895C31.1482 48.4181 31.4032 43.171 28.5774 38.6699C25.7517 34.1688 20.9152 32.118 17.775 34.0894C14.6347 36.0608 14.3797 41.3079 17.2055 45.809C20.0312 50.3102 24.8676 52.3609 28.0079 50.3895Z" fill="#3F8F56" stroke="#003D0D" stroke-width="1.02263" stroke-miterlimit="10"/>
<path d="M26.4689 51.176C29.1285 49.5064 29.0363 44.5719 26.2631 40.1544C23.4899 35.737 19.0858 33.5095 16.4263 35.1791C13.7667 36.8487 13.8588 41.7832 16.632 46.2007C19.4052 50.6181 23.8094 52.8457 26.4689 51.176Z" fill="#4DB757" stroke="#003D0D" stroke-width="1.02263" stroke-miterlimit="10"/>
<path d="M55.3017 27.3126C56.594 27.0228 57.3791 25.6174 57.0553 24.1735C56.7315 22.7296 55.4214 21.7941 54.1291 22.0839C52.8368 22.3737 52.0516 23.7791 52.3754 25.223C52.6992 26.6669 54.0093 27.6024 55.3017 27.3126Z" fill="#4DB757" stroke="#003D0D" stroke-width="1.02263" stroke-miterlimit="10"/>
<path d="M69.7285 12.1671C70.7866 11.9298 71.4295 10.7792 71.1644 9.59706C70.8993 8.41496 69.8266 7.64904 68.7685 7.88633C67.7104 8.12362 67.0676 9.27426 67.3327 10.4564C67.5978 11.6385 68.6704 12.4044 69.7285 12.1671Z" fill="#3F8F56" stroke="#003D0D" stroke-width="1.02263" stroke-miterlimit="10"/>
<path d="M28.2006 68.7049L38.7797 93.1049L32.5723 91.8368L46.9607 126.959L52.8869 129.076L60.7867 146.282" stroke="#003D0D" stroke-width="1.02263" stroke-linejoin="round"/>
<path d="M39.7049 100.008C40.5403 99.6858 40.8545 98.4829 40.4068 97.3208C39.9591 96.1587 38.9189 95.4775 38.0836 95.7994C37.2483 96.1212 36.934 97.3241 37.3818 98.4862C37.8295 99.6483 38.8696 100.329 39.7049 100.008Z" stroke="#003D0D" stroke-width="1.02263" stroke-linejoin="round"/>
<path d="M50.2535 125.864C51.0862 125.535 51.3907 124.33 50.9337 123.171C50.4767 122.013 49.4311 121.34 48.5984 121.669C47.7657 121.997 47.4611 123.203 47.9182 124.361C48.3752 125.519 49.4207 126.192 50.2535 125.864Z" stroke="#003D0D" stroke-width="1.02263" stroke-linejoin="round"/>
<path opacity="0.19" d="M66.1453 79.1409L109.73 43.4561L128.209 92.9669L86.1736 128.933L66.1453 79.1409Z" fill="#FCFFC7"/>
<path d="M66.1453 79.1409L109.73 43.4561L128.209 92.9669L86.1736 128.933L66.1453 79.1409Z" stroke="#003D0D" stroke-width="0.511316" stroke-linejoin="round"/>
<path d="M126.128 136.878C127.469 131.52 125.043 126.297 120.709 125.212C116.376 124.127 111.775 127.592 110.434 132.95C109.093 138.309 111.52 143.532 115.853 144.616C120.187 145.701 124.787 142.236 126.128 136.878Z" fill="#14AA4B" stroke="#003D0D" stroke-width="1.02263" stroke-linejoin="round"/>
<path d="M121.153 125.548C121.153 125.548 125.386 129.357 117.487 139.369L119.885 140.918C119.885 140.918 126.092 134.854 125.243 128.646C125.243 128.646 123.975 126.392 121.153 125.543V125.548Z" fill="#0A5425" stroke="#003D0D" stroke-width="1.02263" stroke-linejoin="round"/>
<path opacity="0.25" d="M125.576 92.4402L119.701 77.5558L97.4021 83.395L82.983 105.847L88.1627 122.035L103.073 98.2794L125.576 92.4402Z" fill="#3B0000"/>
<path opacity="0.25" d="M118.32 74.9327L112.445 60.0432L90.1414 65.8876L76.3512 87.6594L81.7967 103.74L95.8119 80.772L118.32 74.9327Z" fill="#3B0000"/>
<path d="M9.86481 68.0709C12.4163 77.6069 16.4608 87.777 21.078 96.4233" stroke="#003D0D" stroke-width="0.127829" stroke-miterlimit="10"/>
<path d="M7.96271 70.8218C12.0328 76.1804 15.9392 81.6054 19.8099 87.1123" stroke="#003D0D" stroke-width="0.127829" stroke-miterlimit="10"/>
<path d="M15.1518 77.5916C15.9546 78.6295 16.7215 79.6982 17.4783 80.7668" stroke="#003D0D" stroke-width="0.127829" stroke-miterlimit="10"/>
<path d="M13.4594 65.1052C18.2453 70.5303 25.8128 73.9357 31.4424 78.4352" stroke="#003D0D" stroke-width="0.127829" stroke-miterlimit="10"/>
<path d="M27.8478 71.8751C32.3065 75.5923 36.801 79.284 41.1779 83.0882" stroke="#003D0D" stroke-width="0.127829" stroke-miterlimit="10"/>
<path d="M49.4304 77.3768C51.7671 81.5901 55.2696 85.5374 58.3171 89.224" stroke="#003D0D" stroke-width="0.127829" stroke-miterlimit="10"/>
<path d="M60.2192 119.269C62.2593 123.682 65.2914 128.442 66.1453 133.233" stroke="#003D0D" stroke-width="0.127829" stroke-miterlimit="10"/>
<path d="M57.049 97.6914C62.0855 108.076 69.0394 117.444 73.9736 127.946" stroke="#003D0D" stroke-width="0.127829" stroke-miterlimit="10"/>
<path d="M33.5592 129.004C36.576 130.191 39.5621 133.049 42.2516 134.746C47.017 137.753 51.9666 140.417 56.6196 143.602" stroke="#003D0D" stroke-width="0.127829" stroke-miterlimit="10"/>
<path d="M53.8737 138.735C57.5552 141.036 61.9321 142.6 65.9357 144.236" stroke="#003D0D" stroke-width="0.127829" stroke-miterlimit="10"/>
<path d="M61.9116 127.736C66.2987 131.305 70.5887 134.982 74.8172 138.74" stroke="#003D0D" stroke-width="0.127829" stroke-miterlimit="10"/>
<path d="M71.8568 66.1637C70.9517 71.4098 70.9159 77.1877 70.3433 82.49C69.7706 87.7924 68.5332 94.9355 70.3739 100.228" stroke="#003D0D" stroke-width="0.127829" stroke-miterlimit="10"/>
<path d="M75.666 72.2994V80.3373" stroke="#003D0D" stroke-width="0.127829" stroke-miterlimit="10"/>
<path d="M79.2606 64.686C79.731 66.1074 80.4673 67.0585 81.5871 68.0709" stroke="#003D0D" stroke-width="0.127829" stroke-miterlimit="10"/>
<path d="M108.672 101.71C106.723 113.414 103.18 125.19 99.3605 136.408" stroke="#003D0D" stroke-width="0.127829" stroke-miterlimit="10"/>
<path d="M122.002 108.056C123.858 110.439 125.647 112.821 127.928 114.826" stroke="#003D0D" stroke-width="0.127829" stroke-miterlimit="10"/>
<path d="M129.405 107.212C130.259 108.455 131.328 109.707 131.947 111.021" stroke="#003D0D" stroke-width="0.127829" stroke-miterlimit="10"/>
<path d="M134.063 100.652C133.066 107.626 130.494 114.442 129.196 121.386" stroke="#003D0D" stroke-width="0.127829" stroke-miterlimit="10"/>
<path d="M109.52 38.4503C110.001 41.1245 110.952 43.7885 111.213 46.4882" stroke="#003D0D" stroke-width="0.127829" stroke-miterlimit="10"/>
<path d="M112.271 37.1772C116.295 44.2794 118.208 53.299 120.948 60.8716" stroke="#003D0D" stroke-width="0.127829" stroke-miterlimit="10"/>
<path d="M10.2892 58.9694C11.8538 60.3244 13.5514 61.3624 15.3666 62.3543" stroke="#003D0D" stroke-width="0.127829" stroke-miterlimit="10"/>
<path d="M12.8253 56.8577C19.319 60.0483 25.8127 64.0621 31.6571 68.2805" stroke="#003D0D" stroke-width="0.127829" stroke-miterlimit="10"/>
<path d="M35.4664 51.5656C36.8571 52.3837 38.432 52.6752 39.9097 53.2581" stroke="#003D0D" stroke-width="0.127829" stroke-miterlimit="10"/>
<path d="M43.0799 50.9316C45.3501 53.7592 49.2719 55.4414 52.8102 55.7993" stroke="#003D0D" stroke-width="0.127829" stroke-miterlimit="10"/>
<path d="M43.2946 44.3713C44.1536 44.8929 45.0842 45.3377 46.0455 45.6394" stroke="#003D0D" stroke-width="0.127829" stroke-miterlimit="10"/>
<path d="M36.7345 39.294C39.5109 40.2706 42.5226 40.3575 45.4115 40.7768" stroke="#003D0D" stroke-width="0.127829" stroke-miterlimit="10"/>
<path d="M77.5682 34.4263C77.5937 35.4284 77.4966 36.3897 77.3585 37.3868" stroke="#003D0D" stroke-width="0.127829" stroke-miterlimit="10"/>
<path d="M105.077 40.5621C103.027 42.3926 101.534 45.0821 99.9127 47.2705C95.1728 53.6876 90.617 60.3398 85.3964 66.3784" stroke="#003D0D" stroke-width="0.127829" stroke-miterlimit="10"/>
<path d="M106.555 52.4143C106.222 54.388 106.498 55.8913 106.529 58.0695C106.647 65.6318 106.181 73.2095 105.921 80.7668" stroke="#003D0D" stroke-width="0.127829" stroke-miterlimit="10"/>
<path d="M110.788 73.3579C111.514 87.1532 110.957 101.005 111.213 114.826" stroke="#003D0D" stroke-width="0.127829" stroke-miterlimit="10"/>
<path d="M129.62 173.857C130.811 173.806 132.228 173.249 133.215 172.589" stroke="#003D0D" stroke-width="0.127829" stroke-miterlimit="10"/>
<path d="M121.367 172.589C124.614 173.791 133.199 172.65 134.907 169.414" stroke="#003D0D" stroke-width="0.127829" stroke-miterlimit="10"/>
<path d="M140.833 163.068C140.593 163.692 140.378 164.336 140.199 164.97" stroke="#003D0D" stroke-width="0.127829" stroke-miterlimit="10"/>
<path d="M141.677 154.182C142.649 155.383 143.185 157.106 143.369 158.625" stroke="#003D0D" stroke-width="0.127829" stroke-miterlimit="10"/>
</g>
<defs>
<radialGradient id="paint0_radial_1797_23894" cx="0" cy="0" r="1" gradientUnits="userSpaceOnUse" gradientTransform="translate(155.933 138.252) rotate(-120.81) scale(21.5111 13.1218)">
<stop offset="0.32" stop-color="#1AFF00"/>
<stop offset="0.54" stop-color="#47C900"/>
<stop offset="0.63" stop-color="#48C304"/>
<stop offset="0.74" stop-color="#4BB412"/>
<stop offset="0.86" stop-color="#509A28"/>
<stop offset="0.99" stop-color="#587748"/>
<stop offset="1" stop-color="#59744B"/>
</radialGradient>
<linearGradient id="paint1_linear_1797_23894" x1="101.155" y1="164.688" x2="143.695" y2="146.491" gradientUnits="userSpaceOnUse">
<stop stop-color="#9FFF94"/>
<stop offset="0.03" stop-color="#99F38D"/>
<stop offset="0.16" stop-color="#82C676"/>
<stop offset="0.29" stop-color="#70A263"/>
<stop offset="0.41" stop-color="#638855"/>
<stop offset="0.51" stop-color="#5B794D"/>
<stop offset="0.6" stop-color="#59744B"/>
<stop offset="0.91" stop-color="#34E010"/>
<stop offset="1" stop-color="#2AFF00"/>
</linearGradient>
<radialGradient id="paint2_radial_1797_23894" cx="0" cy="0" r="1" gradientUnits="userSpaceOnUse" gradientTransform="translate(118.535 151.461) scale(17.3899)">
<stop offset="0.37" stop-color="#40FF00"/>
<stop offset="0.5" stop-color="#3BFF00" stop-opacity="0.81"/>
<stop offset="0.81" stop-color="#31FF00" stop-opacity="0.32"/>
<stop offset="1" stop-color="#2AFF00" stop-opacity="0"/>
</radialGradient>
<linearGradient id="paint3_linear_1797_23894" x1="79.056" y1="58.7854" x2="128.357" y2="138.126" gradientUnits="userSpaceOnUse">
<stop stop-color="#5C7835"/>
<stop offset="0.51" stop-color="#2E3B1A"/>
<stop offset="0.7" stop-color="#2C3819"/>
<stop offset="0.76" stop-color="#2B3F1C"/>
<stop offset="0.85" stop-color="#295427"/>
<stop offset="0.96" stop-color="#257639"/>
<stop offset="1" stop-color="#248541"/>
</linearGradient>
<linearGradient id="paint4_linear_1797_23894" x1="4.34255" y1="61.8379" x2="87.7075" y2="153.66" gradientUnits="userSpaceOnUse">
<stop stop-color="#FFFC94"/>
<stop offset="0.09" stop-color="#D8DC83"/>
<stop offset="0.21" stop-color="#ABB76F"/>
<stop offset="0.32" stop-color="#879A5F"/>
<stop offset="0.43" stop-color="#6D8554"/>
<stop offset="0.52" stop-color="#5E784D"/>
<stop offset="0.6" stop-color="#59744B"/>
<stop offset="0.91" stop-color="#34E010"/>
<stop offset="1" stop-color="#2AFF00"/>
</linearGradient>
<linearGradient id="paint5_linear_1797_23894" x1="4.4806" y1="56.9293" x2="102.653" y2="38.5219" gradientUnits="userSpaceOnUse">
<stop stop-color="#FBDA49"/>
<stop offset="0.22" stop-color="#CFC245"/>
<stop offset="0.47" stop-color="#A3AB42"/>
<stop offset="0.69" stop-color="#849A40"/>
<stop offset="0.87" stop-color="#708F3F"/>
<stop offset="1" stop-color="#6A8C3F"/>
</linearGradient>
<clipPath id="clip0_1797_23894">
<rect width="303.195" height="189.09" fill="white" transform="translate(0.466797 0.0504761)"/>
</clipPath>
</defs>
</svg>
