<?xml version="1.0" encoding="utf-8"?>
<!-- Generator: Adobe Illustrator 28.0.0, SVG Export Plug-In . SVG Version: 6.00 Build 0)  -->
<svg version="1.1" id="Layer_1" xmlns="http://www.w3.org/2000/svg" xmlns:xlink="http://www.w3.org/1999/xlink" x="0px" y="0px"
	 viewBox="0 0 480 100" style="enable-background:new 0 0 480 100;" xml:space="preserve">
<style type="text/css">
	.st0{fill:#EF3F28;}
</style>
<g>
	<g>
		<path class="st0" d="M341.5,73.3c-0.7,1.8-1.5,3.2-2.3,4.1c-0.8,0.9-1.8,1.3-3,1.3h-7c-1.4,0-2-0.6-2-1.8c0-0.5,0.1-1,0.2-1.6
			c0.2-0.6,0.4-1.3,0.7-2l12.6-32.8c0.7-1.8,1.5-3.2,2.2-4.1c0.8-0.9,1.8-1.3,3-1.3h32.5c1.1,0,2,0.2,2.9,0.7
			c0.9,0.5,1.6,1.1,2.2,1.8c0.6,0.8,1.1,1.6,1.4,2.6c0.3,0.9,0.5,1.9,0.5,2.8c0,1.1-0.1,1.9-0.4,2.5l-10.6,27.7
			c-0.7,1.8-1.5,3.2-2.3,4.1c-0.8,0.9-1.8,1.3-3,1.3h-6.9c-1.4,0-2-0.6-2-1.8c0-0.5,0.1-1,0.2-1.6c0.2-0.6,0.4-1.3,0.7-2l9.3-24.4
			v-0.2c0-0.9-0.4-1.5-1.1-2c-0.7-0.4-1.4-0.6-2.3-0.6h-14c-0.3,0-0.7,0.2-1.1,0.6c-0.4,0.4-0.7,0.8-0.8,1.2L341.5,73.3L341.5,73.3z
			"/>
		<path class="st0" d="M255.6,68.3c-0.4,1-1.1,2.1-2.2,3.4c-1.1,1.2-2.3,2.4-3.7,3.4c-1.4,1-2.9,1.9-4.4,2.6c-1.5,0.7-2.9,1-4.3,1
			h-30c-1.4,0-2-0.6-2-1.8c0-0.5,0.1-1,0.2-1.6c0.2-0.6,0.4-1.3,0.7-2l12.6-32.8c0.7-1.9,1.5-3.3,2.2-4.1c0.8-0.8,1.8-1.3,3-1.3
			h34.9c1.2,0,2.1,0.4,2.6,1.2c0.5,0.8,0.8,1.7,0.8,2.9s-0.2,2.4-0.8,3.6L255.6,68.3L255.6,68.3z M249.2,46.1H235
			c-0.3,0-0.7,0.2-1.1,0.6c-0.4,0.4-0.7,0.8-0.8,1.2l-6.9,18c-0.1,0.4-0.1,0.7-0.1,0.8c0,0.3,0,0.6,0.1,0.8c0.1,0.2,0.3,0.3,0.6,0.3
			h11.4c0.8,0,1.8-0.2,2.9-0.7c1.1-0.5,2-1.2,2.7-2.2l6-15.4c0.1-0.3,0.2-0.7,0.4-1.1c0.1-0.5,0.2-0.9,0.2-1.2
			C250.1,46.4,249.8,46.1,249.2,46.1L249.2,46.1z"/>
		<path class="st0" d="M136.9,45.6l-8.7,22.7c-0.4,1-1.1,2.1-2.2,3.4c-1.1,1.2-2.3,2.4-3.7,3.4c-1.4,1-2.9,1.9-4.4,2.6
			c-1.5,0.7-2.9,1-4.2,1H88.5c-1.1,0-2.1-0.2-2.9-0.7c-0.9-0.5-1.6-1.1-2.2-1.8c-0.6-0.8-1.1-1.6-1.4-2.5c-0.3-0.9-0.4-1.9-0.4-2.9
			c0-1.1,0.1-1.9,0.4-2.5l8.7-22.7c0.4-1,1.1-2.1,2.2-3.4c1.1-1.2,2.3-2.3,3.8-3.4c1.4-1.1,2.9-1.9,4.4-2.6c1.5-0.7,2.9-1.1,4.2-1.1
			h25.2c1.1,0,2,0.2,2.9,0.7c0.9,0.5,1.6,1.1,2.2,1.8c0.6,0.8,1.1,1.6,1.4,2.6c0.3,0.9,0.5,1.9,0.5,2.8
			C137.3,44.2,137.2,45,136.9,45.6L136.9,45.6z M118.9,46.1h-10.7c-0.8,0-1.8,0.2-2.9,0.7c-1.1,0.5-1.9,1.2-2.6,2.2l-6.2,16v0.2
			c0,0.9,0.3,1.6,1,2c0.7,0.4,1.5,0.6,2.3,0.6h11c0.8,0,1.8-0.2,2.8-0.7c1-0.5,1.8-1.2,2.5-2.2l6.2-16v-0.2c0-0.9-0.4-1.6-1.1-2
			C120.5,46.3,119.8,46.1,118.9,46.1L118.9,46.1z"/>
		<path class="st0" d="M432.9,36.6h19c1.4,0,2.1,0.6,2.1,1.7c0,1-0.3,2.2-1,3.8l-4.4,11.5c-0.4,1-1,2.1-2,3.4
			c-0.9,1.2-2,2.4-3.2,3.4c-1.3,1-2.7,1.9-4.3,2.6c-1.6,0.7-3.2,1-5,1h-32.5c-0.6,0-1.1-0.1-1.5-0.4c-0.3-0.2-0.5-0.7-0.5-1.5
			c0-0.7,0.3-1.9,0.9-3.6l10.6-27.7c0.4-1,1.1-2.1,2.2-3.4c1.1-1.2,2.3-2.3,3.8-3.4c1.4-1.1,2.9-1.9,4.4-2.6
			c1.5-0.7,2.9-1.1,4.3-1.1H460c0.3,0,0.5,0.3,0.5,0.9c0,0.5-0.1,1-0.2,1.6c-0.2,0.6-0.3,1-0.4,1.3c-0.3,0.8-0.7,1.6-1.2,2.4
			c-0.5,0.8-1,1.6-1.6,2.3c-0.6,0.7-1.2,1.2-1.8,1.7c-0.6,0.4-1.3,0.6-1.9,0.6h-24.7c-0.9,0-1.8,0.2-2.9,0.6
			c-1.1,0.4-1.9,1.1-2.5,2.1l-6.7,17.3c0,0-0.1,0.2-0.1,0.5c0,0.3,0.1,0.6,0.2,0.9c0.2,0.2,0.3,0.3,0.4,0.3h13.9
			c0.8,0,1.7-0.2,2.7-0.6c1.1-0.5,1.9-1.1,2.7-2l0.4-1c0-0.2,0.1-0.4,0.1-0.4c0-0.1,0.1-0.2,0.1-0.2c0-0.3-0.1-0.5-0.2-0.8
			c-0.1-0.2-0.3-0.3-0.6-0.3H431c-0.6,0-1.1-0.2-1.4-0.8c-0.2-0.5-0.4-1.2-0.4-2c0-0.7,0.1-1.5,0.2-2.2c0.2-0.8,0.4-1.6,0.7-2.3
			c0.1-0.2,0.2-0.5,0.4-1c0.2-0.4,0.4-0.8,0.7-1.3c0.3-0.4,0.6-0.8,0.9-1.1C432.4,36.7,432.7,36.6,432.9,36.6L432.9,36.6z"/>
		<path class="st0" d="M298.2,33.1c0.1-0.4,0.1-0.7,0.1-0.7c0-0.8-0.2-1.1-0.7-1.1h-8.5c-0.7,0-1.2-0.3-1.5-0.8
			c-0.2-0.6-0.4-1.3-0.4-2.2c0-1.5,0.3-2.9,0.8-4.1c0.1-0.2,0.2-0.5,0.4-1c0.2-0.4,0.4-0.9,0.7-1.3c0.3-0.4,0.6-0.8,0.9-1.1
			c0.3-0.3,0.6-0.5,0.8-0.5h37.9c0.3,0,0.5,0.3,0.5,0.9c0,0.5-0.1,1-0.2,1.6c-0.2,0.6-0.3,1-0.4,1.3c-0.3,0.8-0.7,1.6-1.2,2.4
			c-0.5,0.9-1,1.6-1.6,2.4c-0.6,0.7-1.2,1.2-1.8,1.7c-0.6,0.4-1.3,0.6-1.9,0.6h-8.5c-0.2,0-0.6,0.2-1,0.6c-0.4,0.4-0.7,0.8-1,1.3
			l-6.9,18c-0.1,0.4-0.1,0.7-0.1,0.7c0,0.8,0.2,1.1,0.7,1.1h8.5c0.7,0,1.2,0.3,1.5,0.9c0.3,0.5,0.5,1.2,0.5,2.1
			c0,1.5-0.3,2.9-0.8,4.1c-0.1,0.2-0.2,0.5-0.4,1c-0.2,0.4-0.4,0.8-0.7,1.3c-0.2,0.4-0.5,0.8-0.8,1.1c-0.3,0.3-0.6,0.4-0.8,0.4
			h-37.9c-0.3,0-0.5-0.3-0.5-0.9c0-0.5,0.1-1,0.2-1.6c0.2-0.6,0.3-1.1,0.4-1.3c0.3-0.8,0.7-1.6,1.1-2.4c0.5-0.9,1.1-1.6,1.7-2.3
			c0.6-0.7,1.2-1.3,1.8-1.7c0.6-0.5,1.3-0.7,1.9-0.7h8.5c0.2,0,0.5-0.2,1-0.4c0.4-0.3,0.7-0.7,1-1.1L298.2,33.1z"/>
		<path class="st0" d="M184,58.5l1.8-4.6c0.2-0.7,0.4-1.2,0.4-1.6c0-0.6-0.4-0.9-1.2-0.9h-16.1c-0.6,0-1.1,0.1-1.4,0.4
			c-0.3,0.2-0.7,0.7-0.9,1.3l-2.1,5.5c-0.8,2-1.5,3.3-2.3,4.2c-0.8,0.8-1.8,1.2-3,1.2h-7c-1.4,0-2.1-0.5-2.1-1.7c0-1,0.3-2.2,1-3.8
			l10.6-27.7c0.4-1,1.1-2.1,2.2-3.4c1.1-1.2,2.3-2.3,3.8-3.4c1.4-1.1,2.9-1.9,4.4-2.6c1.5-0.7,2.9-1.1,4.2-1.1h25.2
			c1.1,0,2,0.2,2.9,0.7c0.9,0.5,1.6,1.1,2.2,1.8c0.6,0.8,1.1,1.6,1.4,2.6c0.3,0.9,0.5,1.9,0.5,2.8c0,1.1-0.1,1.9-0.4,2.5l-10.6,27.8
			c-0.8,2-1.5,3.3-2.3,4.2c-0.8,0.8-1.8,1.2-3,1.2h-7c-1.3,0-2-0.5-2-1.6C183,61.2,183.3,60,184,58.5L184,58.5z M189.8,40.3
			c0.3,0,0.7-0.2,0.9-0.4c0.3-0.3,0.6-0.6,0.8-1l1.8-4.8v-0.2c0-0.9-0.4-1.5-1.1-2c-0.7-0.4-1.4-0.6-2.3-0.6h-11
			c-0.9,0-1.8,0.2-2.8,0.8c-1,0.5-1.8,1.2-2.5,2.1l-2,5.1c0,0.3,0,0.6,0.1,0.8c0.1,0.2,0.3,0.3,0.6,0.3L189.8,40.3L189.8,40.3z"/>
		<path class="st0" d="M47,25.7l-9.7,25.5c-0.1,0.2-0.2,0.5-0.2,0.8c0,0.2,0.1,0.5,0.2,0.7c0.1,0.2,0.3,0.2,0.6,0.2h23.8
			c0.3,0,0.5,0.4,0.5,1.1c0,0.5-0.1,1.2-0.2,1.8c-0.1,0.6-0.2,1.1-0.3,1.3c-0.4,1-0.9,1.9-1.7,2.7c-0.7,0.8-1.5,1.5-2.4,2.1
			c-0.9,0.6-1.8,1.1-2.9,1.4c-1,0.3-2,0.4-3,0.4H22.3c-1.4,0-2-0.6-2-1.8c0-0.5,0.1-1,0.2-1.6c0.2-0.6,0.4-1.3,0.7-2l12.6-32.8
			c0.7-1.9,1.5-3.3,2.2-4.1c0.8-0.9,1.8-1.3,3-1.3h7c1.3,0,2,0.5,2,1.6C48,22.8,47.7,24,47,25.7L47,25.7z"/>
		<g>
			<defs>
				<path id="SVGID_1_" d="M305.6,21.1C305.6,21.1,305.6,21.1,305.6,21.1L305.6,21.1C305.6,21.1,305.6,21.1,305.6,21.1z"/>
			</defs>
			<use xlink:href="#SVGID_1_"  style="overflow:visible;fill:#EF3F28;"/>
			<clipPath id="SVGID_00000150824251618098867560000015447152305239416738_">
				<use xlink:href="#SVGID_1_"  style="overflow:visible;"/>
			</clipPath>
		</g>
	</g>
</g>
</svg>
