<svg viewBox="0 0 249 39" fill="none" xmlns="http://www.w3.org/2000/svg">
    <path d="M115.998 0.602539C112.389 9.56443 108.944 18.1418 105.483 26.7192C104.344 29.5389 102.269 30.9488 99.2571 30.9488C90.7093 30.9488 82.1615 30.9488 73.6211 30.9488H70.9443C73.5915 24.4196 76.1204 18.1862 78.6418 11.9454C79.9802 8.64754 81.2594 5.3275 82.6791 2.05922C82.9379 1.46028 83.7069 0.669088 84.2467 0.669088C94.717 0.58775 105.187 0.609933 115.998 0.609933V0.602539ZM106.821 13.7644C103.08 13.7644 99.7525 13.7644 96.4177 13.7644C93.0237 13.7644 92.9942 13.794 92.3804 17.4468H98.2737C97.1867 19.1031 96.5212 21.24 95.5526 21.3879C92.4691 21.8464 89.2822 21.558 85.8586 21.558C87.3375 17.9274 88.7202 14.6591 89.9773 11.3391C90.4505 10.082 91.153 9.69014 92.4618 9.71232C97.2163 9.78626 101.971 9.78626 106.725 9.69753C107.465 9.68274 108.515 9.26127 108.848 8.69191C109.617 7.37572 110.038 5.85249 110.615 4.35884C110.245 4.25532 110.045 4.1518 109.846 4.1518C102.193 4.13702 94.5396 4.10004 86.8865 4.20356C86.221 4.21096 85.2597 5.0687 84.9639 5.75637C83.108 10.0377 81.3925 14.3855 79.64 18.7186C78.5087 21.5136 77.407 24.3161 76.1795 27.3921C84.5277 27.3921 92.5357 27.4069 100.544 27.3477C100.958 27.3477 101.579 26.7932 101.756 26.3569C103.42 22.327 105.017 18.2601 106.807 13.757L106.821 13.7644Z" fill="#0F0F1C"/>
    <path d="M106.822 13.7645C105.032 18.2676 103.442 22.3271 101.771 26.3644C101.594 26.8006 100.973 27.3552 100.559 27.3552C92.5505 27.4144 84.5425 27.3996 76.1943 27.3996C77.4218 24.3236 78.5235 21.5211 79.6549 18.7261C81.4073 14.393 83.1228 10.0452 84.9788 5.76385C85.2745 5.07618 86.2358 4.21844 86.9013 4.21105C94.5544 4.10753 102.207 4.1445 109.861 4.15929C110.06 4.15929 110.26 4.26281 110.63 4.36633C110.045 5.85998 109.631 7.38321 108.862 8.69939C108.53 9.26875 107.472 9.69023 106.74 9.70502C101.986 9.79375 97.2311 9.79375 92.4766 9.7198C91.1678 9.69762 90.4653 10.0895 89.9921 11.3466C88.7351 14.6666 87.3449 17.9349 85.8735 21.5655C89.297 21.5655 92.484 21.8539 95.5674 21.3954C96.5361 21.2549 97.2016 19.1106 98.2885 17.4542H92.3953C93.009 13.8015 93.0386 13.7719 96.4325 13.7719C99.7674 13.7719 103.095 13.7719 106.836 13.7719L106.822 13.7645Z" fill="#F8D9AD"/>
    <path d="M145.28 8.40356C143.727 12.2116 142.211 16.0567 140.562 19.8499C140.385 20.2492 139.431 20.6189 138.928 20.5228C136.155 20.0126 134.861 21.351 134.314 23.8576C134.181 24.4862 133.863 25.0851 133.56 25.8985H138.255C136.599 29.9875 135.068 33.8178 133.471 37.6258C133.316 37.9882 132.709 38.3801 132.31 38.3801C122.816 38.4244 113.321 38.4096 103.546 38.4096C105.772 32.8565 107.879 27.5696 110.009 22.2901C111.732 18.0235 113.447 13.7496 115.251 9.5201C115.51 8.92116 116.287 8.13736 116.826 8.13736C126.121 8.06342 135.416 8.10039 144.71 8.11518C144.829 8.11518 144.954 8.23349 145.28 8.40356ZM132.983 29.2481H118.645C119.365 26.5221 120.994 25.159 123.533 25.159C124.723 25.159 125.907 25.159 127.097 25.159C130.469 25.159 130.624 25.0112 131.097 21.2549H122.032C122.653 17.2767 122.727 17.2176 126.239 17.2176C129.581 17.2176 132.924 17.2545 136.266 17.1806C136.917 17.1658 137.893 16.907 138.137 16.456C138.92 14.9993 139.431 13.3947 140.141 11.6127C132.953 11.6127 126.128 11.5757 119.303 11.6792C118.697 11.6866 117.847 12.5222 117.558 13.1729C116.213 16.2193 115.022 19.3397 113.772 22.4379C112.138 26.4678 110.504 30.4977 108.737 34.8604C116.109 34.8604 123.126 34.8678 130.151 34.8308C130.476 34.8308 130.957 34.4389 131.097 34.1061C131.726 32.6347 132.266 31.1189 132.975 29.2481H132.983Z" fill="#0F0F1C"/>
    <path d="M132.99 29.2551C132.28 31.1259 131.748 32.6417 131.112 34.1132C130.972 34.4385 130.491 34.8304 130.166 34.8378C123.141 34.8822 116.116 34.8674 108.752 34.8674C110.519 30.5047 112.16 26.4749 113.787 22.445C115.037 19.3541 116.22 16.2337 117.573 13.1799C117.861 12.5292 118.712 11.6936 119.318 11.6862C126.143 11.5827 132.968 11.6197 140.155 11.6197C139.445 13.4017 138.935 15.0063 138.151 16.463C137.907 16.9214 136.931 17.1728 136.281 17.1876C132.938 17.2616 129.596 17.2246 126.254 17.2246C122.734 17.2246 122.668 17.2911 122.047 21.2619H131.112C130.639 25.0256 130.484 25.1661 127.112 25.1661C125.921 25.1661 124.738 25.1661 123.548 25.1661C121.014 25.1661 119.385 26.5291 118.66 29.2551H132.998H132.99Z" fill="#F8D9AD"/>
    <path d="M221.736 24.4266C221.463 24.8259 221.308 24.9959 221.219 25.1956C220.383 27.0737 220.036 29.6987 218.586 30.6378C217.115 31.5991 214.564 30.9262 212.486 30.941C209.743 30.9558 207 30.941 203.931 30.941C208.072 20.6925 212.116 10.6732 216.183 0.59475C219.555 0.59475 222.823 0.528201 226.092 0.653904C226.728 0.676087 227.526 1.28242 227.918 1.85178C229.049 3.46374 230.011 5.19401 231.275 7.26441C232.118 5.22358 232.687 3.55247 233.508 2.01446C233.841 1.39333 234.706 0.676087 235.342 0.661299C239.719 0.54299 244.104 0.602144 248.703 0.602144C248.563 1.20848 248.519 1.6965 248.348 2.12537C244.762 11.0799 241.132 20.0196 237.597 29.0037C237.02 30.4751 236.311 31.0815 234.691 30.9853C232.17 30.8374 229.634 31.0297 227.112 30.8892C226.387 30.8522 225.463 30.3198 225.034 29.7283C223.866 28.1163 222.905 26.3417 221.736 24.4266ZM209.129 27.4065C211.31 27.4065 213.092 27.3104 214.867 27.4361C216.242 27.5322 216.797 26.9702 217.255 25.7428C218.372 22.7333 219.666 19.783 220.923 16.7069C221.278 17.0175 221.418 17.0914 221.485 17.2097C223.267 20.1157 225.116 22.9921 226.779 25.9646C227.43 27.1255 228.199 27.4287 229.434 27.4213C234.321 27.4213 234.321 27.4509 236.17 22.9551C236.251 22.7481 236.34 22.541 236.421 22.3414C238.825 16.3742 241.228 10.4144 243.757 4.13662C241.634 4.13662 239.801 4.22535 237.982 4.10704C236.71 4.01831 236.155 4.52112 235.726 5.65245C234.566 8.72109 233.286 11.7454 231.904 15.1393C230.373 12.6401 228.746 10.6288 227.829 8.33658C226.328 4.58028 223.725 3.50811 220.036 4.12923C219.821 4.1662 219.548 4.06268 219.378 4.1588C218.978 4.38803 218.424 4.62465 218.276 4.99436C215.259 12.3073 212.286 19.6425 209.129 27.3991V27.4065Z" fill="#0F0F1C"/>
    <path d="M209.122 27.4063C212.279 19.6497 215.244 12.3146 218.269 5.0016C218.424 4.63189 218.971 4.39527 219.37 4.16605C219.54 4.06992 219.814 4.17344 220.028 4.13647C223.718 3.51535 226.328 4.58013 227.822 8.34383C228.739 10.6435 230.366 12.6547 231.896 15.1466C233.272 11.7526 234.558 8.72833 235.719 5.6597C236.148 4.52837 236.703 4.02556 237.974 4.11429C239.793 4.23999 241.627 4.14387 243.749 4.14387C241.221 10.4216 238.817 16.3888 236.414 22.3486C236.333 22.5557 236.244 22.7627 236.163 22.9624C234.314 27.4655 234.314 27.4285 229.427 27.4285C228.192 27.4285 227.423 27.1327 226.772 25.9718C225.108 22.9993 223.26 20.123 221.478 17.217C221.404 17.0987 221.271 17.0247 220.916 16.7142C219.651 19.7828 218.365 22.7331 217.248 25.75C216.79 26.9775 216.235 27.5394 214.86 27.4433C213.093 27.3176 211.311 27.4137 209.122 27.4137V27.4063Z" fill="#F8D9AD"/>
    <path d="M165.51 0.668945C163.395 5.9189 161.384 10.9101 159.269 16.1526H171.292C170.42 18.3265 169.666 20.2047 168.919 22.0828C167.935 24.5673 167.019 27.0814 165.932 29.5215C165.665 30.1205 164.859 30.8747 164.297 30.8821C155.75 30.9708 147.209 30.9412 138.329 30.9412C142.455 20.7149 146.499 10.703 150.551 0.668945H165.503H165.51ZM160.327 4.14427C158.227 4.14427 156.519 4.233 154.825 4.11469C153.42 4.01856 152.748 4.50659 152.237 5.84496C150.44 10.5477 148.496 15.1914 146.603 19.8572C145.619 22.2899 144.643 24.7226 143.556 27.3993C149.967 27.3993 155.971 27.4141 161.976 27.3624C162.441 27.3624 163.144 26.9557 163.321 26.549C164.26 24.3973 165.074 22.1938 166.035 19.7241H154.042C156.156 14.4741 158.16 9.48295 160.312 4.13687L160.327 4.14427Z" fill="#0F0F1C"/>
    <path d="M160.327 4.13644C158.176 9.48252 156.172 14.4737 154.057 19.7236H166.05C165.082 22.1933 164.276 24.4042 163.337 26.5486C163.159 26.9479 162.457 27.3545 161.991 27.3619C155.987 27.4137 149.983 27.3989 143.572 27.3989C144.651 24.7222 145.635 22.2821 146.618 19.8567C148.504 15.1909 150.456 10.5473 152.253 5.84452C152.763 4.50616 153.436 4.01813 154.841 4.11426C156.534 4.23257 158.242 4.14384 160.342 4.14384L160.327 4.13644Z" fill="#F8D9AD"/>
    <path d="M45.2422 8.12946H78.0211C76.5866 11.6713 75.2261 15.0136 73.8803 18.3632C71.418 24.4931 68.9557 30.6229 66.5378 36.7676C66.1163 37.8398 65.6357 38.4165 64.3121 38.4091C54.2706 38.3426 44.2365 38.3722 34.1951 38.3648C33.9141 38.3648 33.6257 38.3056 33.0859 38.2391C37.1824 28.1015 41.2271 18.0822 45.2496 8.12207L45.2422 8.12946ZM72.7194 11.8932C72.4162 11.7305 72.2905 11.6122 72.1722 11.6122C64.3786 11.5974 56.5776 11.5604 48.784 11.6418C48.2147 11.6418 47.3939 12.3738 47.1277 12.9579C45.9446 15.5977 44.9316 18.304 43.852 20.9808C42.033 25.4913 40.1993 30.0018 38.2398 34.8451C39.3045 34.8451 40.0218 34.8451 40.7316 34.8451C46.4474 34.8451 52.1632 34.8451 57.8864 34.8451C63.4395 34.8451 63.4543 34.8525 65.5247 29.7652C67.9427 23.8128 70.331 17.8456 72.7268 11.9006L72.7194 11.8932Z" fill="#0F0F1C"/>
    <path d="M72.7192 11.8937C70.3234 17.8387 67.9425 23.8059 65.5172 29.7583C63.4468 34.8456 63.432 34.8382 57.8788 34.8382C52.163 34.8382 46.4472 34.8382 40.7241 34.8382C40.0142 34.8382 39.297 34.8382 38.2322 34.8382C40.1917 29.9949 42.0255 25.4844 43.8445 20.9739C44.924 18.2971 45.9444 15.5834 47.1201 12.9511C47.3863 12.3669 48.2071 11.6423 48.7765 11.6349C56.57 11.5535 64.371 11.5905 72.1646 11.6053C72.2903 11.6053 72.4086 11.731 72.7118 11.8863L72.7192 11.8937ZM62.3746 19.1919C58.988 19.1919 56.0303 19.1697 53.0725 19.214C52.6363 19.214 51.9412 19.4433 51.8007 19.7612C50.7433 22.1496 49.7969 24.5823 48.7469 27.1925C51.9856 27.1925 54.8694 27.2442 57.7531 27.1481C58.3447 27.1259 59.2172 26.7045 59.4464 26.2312C60.4742 24.0425 61.3246 21.7725 62.3746 19.1919Z" fill="#F8D9AD"/>
    <path d="M62.3745 19.1911C61.3245 21.7643 60.4816 24.0418 59.4464 26.2305C59.2172 26.7111 58.3446 27.1326 57.7531 27.1474C54.8693 27.2435 51.9855 27.1917 48.7468 27.1917C49.8042 24.5815 50.7507 22.1488 51.8007 19.7605C51.9412 19.4425 52.6288 19.2207 53.0725 19.2133C56.0302 19.1689 58.9879 19.1911 62.3745 19.1911Z" fill="#0F0F1C"/>
    <path d="M165.547 38.4095C168.631 30.786 171.573 23.51 174.524 16.234C175.441 13.964 176.291 11.6643 177.319 9.43865C177.585 8.8545 178.384 8.12986 178.946 8.12246C189.349 8.04113 199.761 8.06331 210.519 8.06331C210.113 9.15027 209.802 10.0228 209.462 10.8805C206.038 19.421 202.63 27.9688 199.125 36.4796C198.807 37.256 197.838 38.3208 197.165 38.3282C186.761 38.4465 176.35 38.4095 165.555 38.4095H165.547ZM205.24 11.9453C204.959 11.7752 204.848 11.6422 204.73 11.6422C196.936 11.62 189.135 11.583 181.341 11.6717C180.735 11.6717 179.862 12.5147 179.589 13.158C176.794 19.8572 174.102 26.6008 171.389 33.337C171.219 33.7659 171.167 34.2465 171.019 34.8677C177.992 34.8677 184.743 34.8677 191.494 34.8677C195.952 34.8677 195.975 34.875 197.616 30.8452C200.175 24.5452 202.703 18.2305 205.232 11.9453H205.24Z" fill="#0F0F1C"/>
    <path d="M205.24 11.9453C202.711 18.2304 200.183 24.5451 197.624 30.8451C195.983 34.8824 195.96 34.8676 191.502 34.8676C184.751 34.8676 178 34.8676 171.027 34.8676C171.175 34.2465 171.227 33.7732 171.397 33.337C174.103 26.6008 176.802 19.8572 179.597 13.1579C179.87 12.5072 180.743 11.6791 181.349 11.6717C189.143 11.5829 196.944 11.6199 204.737 11.6421C204.856 11.6421 204.974 11.7752 205.248 11.9453H205.24ZM181.268 27.2219C184.507 27.2219 187.464 27.2515 190.415 27.1923C190.918 27.1849 191.709 26.9187 191.871 26.5564C192.921 24.2198 193.831 21.824 194.844 19.2952H184.477C183.427 21.8758 182.385 24.4564 181.261 27.2293L181.268 27.2219Z" fill="#F8D9AD"/>
    <path d="M181.268 27.2212C182.392 24.4483 183.434 21.8751 184.484 19.2871H194.851C193.831 21.8234 192.921 24.2191 191.878 26.5483C191.716 26.918 190.925 27.1768 190.422 27.1842C187.471 27.2434 184.514 27.2138 181.275 27.2138L181.268 27.2212Z" fill="#0F0F1C"/>
    <path d="M0.447266 30.4973C4.59547 20.2266 8.64015 10.2221 12.6996 0.151057C21.3362 0.151057 29.8692 0.136269 38.4022 0.195423C38.9864 0.195423 39.7184 0.698236 40.1325 1.17887C42.7131 4.16616 43.3638 7.19783 41.286 10.9837C39.2674 14.6587 37.9142 18.7181 36.4501 22.6815C35.6959 24.7223 34.4241 26.0977 32.7456 27.4508C29.884 29.7652 26.9041 30.7191 23.1921 30.5712C16.3746 30.2976 9.53486 30.4899 2.70253 30.4899C2.05183 30.4899 1.40852 30.4899 0.447266 30.4899L0.447266 30.4973ZM5.68983 26.9554C12.5591 26.9554 19.0809 27.0811 25.5953 26.9036C28.8192 26.8149 31.4072 24.8628 32.7382 22.0973C34.986 17.4389 36.7311 12.5365 38.6462 7.71543C39.504 5.56369 38.2395 3.70032 35.9473 3.70032C29.566 3.68553 23.1774 3.73729 16.7961 3.66335C15.4577 3.64856 14.8514 4.1218 14.3855 5.32707C12.7218 9.60837 10.9472 13.8453 9.2243 18.1044C8.07079 20.966 6.93946 23.835 5.68983 26.9628V26.9554Z" fill="#0F0F1C"/>
    <path d="M5.68994 26.9551C6.93958 23.8199 8.07091 20.9509 9.22442 18.0967C10.9473 13.8376 12.7219 9.60063 14.3856 5.31933C14.8515 4.11406 15.4578 3.64082 16.7962 3.65561C23.1775 3.72955 29.5661 3.67779 35.9474 3.69258C38.2323 3.69258 39.4967 5.55594 38.6464 7.70769C36.7312 12.5288 34.9862 17.4238 32.7383 22.0896C31.4073 24.8551 28.8119 26.8072 25.5954 26.8959C19.081 27.0808 12.5592 26.9477 5.68994 26.9477V26.9551ZM16.1603 19.3093C19.399 19.3093 22.3567 19.3389 25.307 19.2798C25.8098 19.2724 26.601 19.0062 26.7637 18.6439C27.8137 16.3073 28.7232 13.9115 29.7362 11.3827H19.3694C18.3194 13.9633 17.2768 16.5439 16.1529 19.3167L16.1603 19.3093Z" fill="#F8D9AD"/>
    <path d="M16.1677 19.3101C17.2917 16.5372 18.3343 13.964 19.3842 11.376H29.7511C28.7306 13.9122 27.8211 16.308 26.7785 18.6372C26.6159 19.0069 25.8247 19.2657 25.3219 19.2731C22.3715 19.3322 19.4138 19.3027 16.1751 19.3027L16.1677 19.3101Z" fill="#0F0F1C"/>
</svg>
