<svg width="196" height="164" viewBox="0 0 196 164" fill="none" xmlns="http://www.w3.org/2000/svg">
<path d="M89.0036 149.691C93.0995 140.001 100.52 133.334 109.617 131.451C114.922 130.353 125.055 142.432 128.323 146.403C130.019 144.873 133.576 141.729 135.676 139.913C133.957 133.717 134.337 127.969 136.816 123.042C139.814 117.091 145.717 112.934 153.445 111.337C155.887 110.831 156.901 114.206 159.592 114.223C162.605 113.396 167.038 112.651 170.277 111.581C164.451 106.842 161.762 101.395 162.605 95.8307C163.925 87.1585 173.505 79.6749 187.984 75.7611C174.655 73.8675 164.876 67.7387 162.127 59.1207C160.075 52.6945 162.34 45.8122 168.368 39.5639C165.809 40.4625 159.804 39.7099 157.204 39.1098C143.31 41.9827 134.259 41.8488 128.135 34.5456C125.666 31.5992 123.355 26.881 124.449 19.9996C124.449 19.9996 124.449 19.9973 124.447 19.9999C119.885 19.9996 115.562 19.7937 113.453 19.0492C108.303 24.116 111.926 30.2298 108.325 30.9748C99.2211 32.8582 91.0433 27.5164 85.7706 16.5324C82.9859 15.7151 77.1252 14.1935 74.0557 11.5007C74.2775 19.1507 73.9691 37.7336 65.7336 39.4379C58.7104 40.8895 49.1394 43.7462 41.6232 40.2336C43.3635 42.7034 46.4581 41.214 47.1989 43.7056C48.2214 47.1444 48.2737 50.5549 47.3057 53.8013C45.0202 61.4663 37.3598 67.1751 26.2824 69.4647C24.1569 69.9036 21.927 70.2146 19.6089 70.3936C28.966 73.9473 34.5428 79.6008 35.2261 86.4893C35.9725 93.9554 34.3716 98.9123 24.5529 104.953C36.5659 103.183 41.3906 107.872 44.9617 113.578C47.3461 117.398 32.6376 127.949 30.2119 133.85C31.9905 135.442 32.422 136.285 33.7691 137.469C37.2642 134.346 50.9737 128.885 55.6207 127.925C64.7458 126.037 76.4456 143.179 77.5715 156.661C77.6147 157.072 83.6103 152.649 89.0036 149.691Z" fill="#0F0F1C"/>
<path d="M78.4166 150.804C82.5125 141.114 89.9333 134.447 99.0302 132.564C108.083 130.691 117.501 133.826 125.089 141.026C123.37 134.83 123.75 129.082 126.229 124.155C129.227 118.204 135.13 114.047 142.858 112.449C147.958 111.394 153.685 111.484 159.69 112.694C153.864 107.955 151.175 102.508 152.018 96.9434C153.338 88.2713 162.919 80.7877 177.397 76.8739C164.068 74.9803 154.289 68.8514 151.54 60.2335C149.488 53.8073 151.753 46.925 157.781 40.6767C155.222 41.5753 152.612 42.3022 150.002 42.8423C136.108 45.7153 123.672 42.9616 117.548 35.6584C115.079 32.712 112.768 27.9938 113.862 21.1124C113.862 21.1124 113.862 21.1101 113.86 21.1127C108.768 27.1859 103.266 30.9439 97.7382 32.0875C88.6341 33.971 80.4563 28.6292 75.1836 17.6451C74.0848 29.4474 66.6432 38.1715 55.1466 40.5507C48.1234 42.0023 40.3969 40.863 32.8806 37.3504C37.0229 43.2289 38.3881 49.3155 36.7187 54.9141C34.4332 62.5791 26.7728 68.2878 15.6955 70.5775C13.5699 71.0163 11.34 71.3273 9.02193 71.5063C18.379 75.0601 23.9558 80.7136 24.6391 87.6021C25.3855 95.0682 20.1481 102.622 10.3294 108.663C22.3425 106.893 30.8036 108.984 34.3747 114.691C37.4352 119.593 36.4427 126.553 31.6305 134.689C35.7935 131.948 40.3867 129.998 45.0338 129.038C54.1588 127.15 63.0744 129.146 69.4828 134.511C74.3206 138.554 77.3908 144.21 78.4166 150.804Z" fill="#18C8A9" stroke="#0F0F1C" stroke-width="5"/>
<path d="M58.2333 58.013C60.7945 57.412 62.704 57.2113 64.9479 57.0358C65.4185 60.3648 66.4227 65.327 67.0362 68.5807C67.4608 64.5845 68.201 60.4343 69.0103 56.3675C70.7424 55.9139 73.412 55.4825 75.4062 55.5142C73.6165 62.8817 72.1832 70.4831 71.13 77.6827C69.0619 77.8095 66.4521 78.2347 64.4515 78.7164C63.9274 76.0265 62.9624 71.7238 62.2736 68.3272C61.5193 72.0564 61.0052 75.489 60.5273 78.9781C58.5221 79.1285 57.0036 79.3182 55.0768 79.6414C55.8128 72.8674 56.83 65.0382 58.2333 58.013ZM82.2597 64.477C84.2273 63.9685 87.4527 63.6597 89.2491 63.5312C88.9913 65.0967 88.7525 66.2681 88.3753 67.8462C86.6025 67.9118 83.1745 68.3023 81.4566 68.6035C81.268 69.6791 81.0402 70.6684 80.8217 71.7471C82.761 71.5433 86.2691 71.0539 88.4487 70.5533C87.9271 72.4784 87.3599 74.2574 86.5965 76.1777C82.6833 76.8304 77.4526 77.2896 74.6481 77.5844C75.6385 70.3613 76.4545 63.4883 78.0935 55.8351C82.145 54.7758 88.1058 54.089 92.2059 53.7787C91.634 55.7995 91.0479 57.9727 90.509 60.0203C88.5304 60.1377 85.0491 60.5941 82.9527 61.0256C82.7076 62.1373 82.4718 63.3385 82.2597 64.477ZM93.7556 54.1889C95.7028 53.7731 97.6924 53.4735 99.9096 53.331C99.6547 56.6458 99.6996 60.8039 99.8027 64.081C101.275 60.578 102.769 56.7107 104.124 53.25C105.216 53.0146 106.674 52.8311 108.02 52.7198C108.114 55.9075 108.412 59.8882 108.71 62.7226C110.142 59.1332 111.394 55.2611 112.481 51.8286C114.68 51.5071 117.183 51.2138 119.526 51.1184C116.188 58.6787 113.258 66.1057 109.399 73.8716C107.599 73.9703 106.263 74.1711 104.873 74.4378C104.628 72.1106 104.28 68.7988 104.119 65.2563C102.922 68.2176 101.034 72.0661 99.6817 74.9834C98.0643 75.0931 97.0797 75.1966 95.4576 75.5481C94.6358 68.8774 94.0104 61.4923 93.7556 54.1889ZM49.9204 112.329C51.1024 105.207 52.165 98.0969 53.8495 90.5897C55.3775 89.9163 58.1162 88.995 60.7213 88.8116C63.5949 88.6001 68.6481 88.4611 69.3099 94.1833C69.9794 100.267 65.4263 106.024 56.6516 105.77C55.921 108.863 55.8172 109.598 55.2218 111.682C53.73 111.839 51.5787 112.035 49.9204 112.329ZM57.6763 100.594C59.5213 100.642 61.098 100.144 62.0214 99.1725C63.3658 97.6134 63.85 94.184 61.3031 94.0596C60.5509 94.0783 59.5726 94.2415 58.6618 94.7595C58.2893 96.6689 58.0456 98.6553 57.6763 100.594ZM81.7819 94.3506C79.2851 94.7035 77.2198 97.1528 77.0483 99.8253C76.8861 102.587 78.6084 104.337 81.1083 104.014C83.6679 103.685 85.9216 101.306 86.0634 98.6365C86.2318 95.9341 84.3415 94.0212 81.7819 94.3506ZM82.419 86.9233C88.9028 86.3323 92.3442 90.3747 92.004 96.896C91.6402 103.48 87.0903 108.694 80.8703 109.499C75.2314 110.091 71.5308 106.74 71.2082 101.374C70.6992 92.8005 76.51 87.8158 82.419 86.9233ZM91.3792 107.791L91.6643 102.754C93.0052 102.884 95.1691 102.808 96.562 102.571C99.8486 101.984 100.603 99.9741 97.1562 98.4661C94.7868 97.4481 93.3392 96.3032 92.9156 93.9948C92.6802 92.9034 92.9332 91.5797 93.3762 90.6282C94.7774 87.3136 99.1744 85.5242 102.664 84.8558C104.704 84.4604 106.473 84.3649 108.554 84.3574L107.642 90.6069C106.235 90.423 103.275 90.6738 102.002 91.4713C100.984 92.1212 100.076 93.2422 100.241 94.522C100.388 95.9243 103.191 96.4743 104.188 97.0633C105.568 97.8534 107.28 98.6388 107.202 100.487C107.179 101.123 106.959 101.9 106.657 102.475C103.893 107.17 96.459 108.192 91.3792 107.791ZM110.829 84.2389C115.592 83.3461 121.365 82.5886 126.647 82.335C126.243 84.5192 125.836 86.6736 125.629 88.7165C124.22 88.8042 122.603 88.9138 121.001 89.1727C120.113 94.2131 118.945 100.037 118.144 105.038C116.338 105.077 114.226 105.36 112.451 105.697C113.182 100.884 113.78 95.0899 114.589 89.8767C113.088 89.944 111.37 90.2452 109.885 90.4617C110.006 88.4581 110.234 86.3225 110.829 84.2389ZM127.653 97.3421C127.757 92.5952 128.611 84.934 129.318 82.4766C131.622 81.7217 134.29 81.5619 136.516 81.5089C134.408 86.7077 132.751 93.0357 131.817 96.7838C130.194 96.8337 129.003 96.989 127.653 97.3421ZM129.867 98.316C131.687 98.1247 133.048 99.3089 132.836 101.021C132.653 102.729 131.001 104.23 129.151 104.424C127.266 104.562 125.931 103.345 126.09 101.699C126.332 99.9847 127.981 98.4539 129.867 98.316Z" fill="#0F0F1C"/>
</svg>
