<svg viewBox="0 0 289 124" fill="none" xmlns="http://www.w3.org/2000/svg">
    <path fill-rule="evenodd" clip-rule="evenodd" d="M249.654 40.1777C249.654 40.2114 249.653 40.2452 249.653 40.2789C269.411 41.4187 285.028 51.7543 285.983 64.5499C286.014 64.962 286.029 65.3765 286.029 65.7934V65.7956C286.029 79.1595 270.048 90.1335 249.653 91.3101C249.654 91.3442 249.654 91.3783 249.654 91.4125C249.654 105.561 231.739 117.031 209.64 117.031C200.728 117.031 192.496 115.166 185.845 112.011C178.627 118.705 166.561 123.092 152.894 123.092C140.105 123.092 128.717 119.25 121.392 113.271C115.314 115.656 108.164 117.031 100.513 117.031C78.4144 117.031 60.4998 105.561 60.4998 91.4124L60.5 91.3495L60.5001 91.3107C40.1059 90.1342 24.124 79.1601 24.124 65.7962L24.124 65.7763C24.1377 52.4201 40.1145 41.455 60.5 40.2789C60.4998 40.2452 60.4997 40.2114 60.4997 40.1777C60.4997 26.0287 78.4143 14.5587 100.513 14.5587C108.164 14.5587 115.314 15.9337 121.392 18.3187C128.717 12.3393 140.105 8.49756 152.894 8.49756C166.561 8.49756 178.627 12.8844 185.846 19.5787C192.496 16.4243 200.728 14.5587 209.64 14.5587C231.739 14.5587 249.654 26.0287 249.654 40.1777Z" fill="#0F0F1C"/>
    <path fill-rule="evenodd" clip-rule="evenodd" d="M249.653 85.4528C249.653 85.4179 249.653 85.3831 249.653 85.3482C267.498 84.3187 281.965 75.7881 285.303 64.7187C285.779 63.1373 286.029 61.5042 286.029 59.8337C286.029 46.4697 270.047 35.4957 249.653 34.3191C249.653 34.2845 249.653 34.2499 249.653 34.2152C249.653 20.0663 231.739 8.59625 209.64 8.59625C200.728 8.59625 192.496 10.4619 185.845 13.6164C178.627 6.9223 166.561 2.53564 152.894 2.53564C140.105 2.53564 128.717 6.37719 121.392 12.3563C115.314 9.97124 108.164 8.59625 100.513 8.59625C78.4144 8.59625 60.4998 20.0663 60.4998 34.2152C60.4998 34.2499 60.4999 34.2846 60.5001 34.3192C40.1059 35.4958 24.124 46.4698 24.124 59.8338C24.124 61.2956 24.3153 62.7289 24.6826 64.1238C24.7313 64.309 24.7832 64.4935 24.8381 64.6773C28.152 75.767 42.6327 84.318 60.5002 85.3488C60.4999 85.3834 60.4998 85.4181 60.4998 85.4528C60.4998 99.6017 78.4144 111.072 100.513 111.072C108.164 111.072 115.314 109.697 121.392 107.312C128.717 113.291 140.105 117.132 152.894 117.132C166.561 117.132 178.627 112.746 185.845 106.052C192.496 109.206 200.728 111.072 209.64 111.072C231.739 111.072 249.653 99.6017 249.653 85.4528Z" fill="#0F0F1C"/>
    <path d="M249.653 85.3482L249.537 83.3278L247.618 83.4385L247.629 85.3606L249.653 85.3482ZM285.303 64.7187L283.365 64.1344V64.1344L285.303 64.7187ZM249.653 34.3191L247.629 34.3066L247.617 36.2288L249.536 36.3395L249.653 34.3191ZM185.845 13.6164L184.469 15.1003L185.474 16.0323L186.712 15.4449L185.845 13.6164ZM121.392 12.3563L120.653 14.2403L121.755 14.6727L122.672 13.9241L121.392 12.3563ZM60.5001 34.3192L60.6167 36.3396L62.5357 36.2289L62.5239 34.3067L60.5001 34.3192ZM24.124 59.8338H22.1003H24.124ZM24.6826 64.1238L26.6396 63.6085L26.6396 63.6085L24.6826 64.1238ZM24.8381 64.6773L22.8991 65.2567L22.8991 65.2567L24.8381 64.6773ZM60.5002 85.3488L62.5239 85.3613L62.5357 83.4391L60.6167 83.3284L60.5002 85.3488ZM60.4998 85.4528H62.5236H60.4998ZM100.513 111.072V113.096V111.072ZM121.392 107.312L122.672 105.744L121.755 104.995L120.653 105.428L121.392 107.312ZM185.845 106.052L186.712 104.223L185.474 103.636L184.469 104.568L185.845 106.052ZM209.64 111.072V109.048V111.072ZM247.629 85.3606C247.63 85.3913 247.63 85.4221 247.63 85.4528H251.677C251.677 85.4138 251.677 85.3748 251.677 85.3358L247.629 85.3606ZM283.365 64.1344C281.889 69.0309 277.876 73.5724 271.9 77.0492C265.944 80.5147 258.183 82.829 249.537 83.3278L249.77 87.3686C258.968 86.838 267.363 84.3722 273.936 80.5476C280.49 76.7343 285.379 71.4758 287.24 65.3029L283.365 64.1344ZM284.005 59.8337C284.005 61.3002 283.786 62.7367 283.365 64.1344L287.24 65.3029C287.772 63.538 288.053 61.7082 288.053 59.8337H284.005ZM249.536 36.3395C259.425 36.91 268.143 39.8535 274.332 44.1665C280.533 48.488 284.005 54.0241 284.005 59.8337H288.053C288.053 52.2793 283.535 45.6464 276.646 40.8458C269.745 36.0366 260.276 32.9048 249.77 32.2987L249.536 36.3395ZM247.63 34.2152C247.63 34.2457 247.63 34.2762 247.629 34.3066L251.677 34.3316C251.677 34.2928 251.677 34.254 251.677 34.2152H247.63ZM209.64 10.62C220.362 10.62 229.974 13.4064 236.843 17.8042C243.734 22.2166 247.63 28.0667 247.63 34.2152H251.677C251.677 26.2148 246.616 19.2554 239.025 14.3955C231.412 9.52115 221.017 6.57248 209.64 6.57248V10.62ZM186.712 15.4449C193.068 12.4302 201 10.62 209.64 10.62V6.57248C200.455 6.57248 191.923 8.49358 184.978 11.7879L186.712 15.4449ZM152.894 4.55941C166.181 4.55941 177.711 8.83316 184.469 15.1003L187.221 12.1325C179.542 5.01144 166.94 0.511878 152.894 0.511878V4.55941ZM122.672 13.9241C129.564 8.29837 140.47 4.55941 152.894 4.55941V0.511878C139.74 0.511878 127.871 4.45602 120.113 10.7886L122.672 13.9241ZM100.513 10.62C107.928 10.62 114.825 11.9533 120.653 14.2403L122.132 10.4724C115.803 7.98921 108.401 6.57248 100.513 6.57248V10.62ZM62.5236 34.2152C62.5236 28.0667 66.4192 22.2166 73.3107 17.8042C80.1796 13.4064 89.7915 10.62 100.513 10.62V6.57248C89.136 6.57248 78.7413 9.52115 71.1282 14.3955C63.5377 19.2554 58.4761 26.2148 58.4761 34.2152H62.5236ZM62.5239 34.3067C62.5237 34.2762 62.5236 34.2457 62.5236 34.2152H58.4761C58.4761 34.2541 58.4762 34.2929 58.4764 34.3317L62.5239 34.3067ZM26.1478 59.8338C26.1478 54.0241 29.6203 48.4881 35.8213 44.1665C42.0101 39.8536 50.7284 36.9101 60.6167 36.3396L60.3836 32.2988C49.8776 32.9049 40.4079 36.0367 33.5071 40.8459C26.6186 45.6465 22.1003 52.2794 22.1003 59.8338H26.1478ZM26.6396 63.6085C26.3155 62.3777 26.1478 61.1175 26.1478 59.8338H22.1003C22.1003 61.4737 22.315 63.08 22.7255 64.6392L26.6396 63.6085ZM26.7771 64.0978C26.7285 63.9352 26.6827 63.7721 26.6396 63.6085L22.7255 64.6391C22.78 64.8459 22.8378 65.0518 22.8991 65.2567L26.7771 64.0978ZM60.6167 83.3284C51.9596 82.8289 44.1895 80.5094 38.2306 77.0366C32.2523 73.5526 28.2427 69.0023 26.7771 64.0978L22.8991 65.2567C24.7474 71.442 29.6351 76.7121 36.1925 80.5336C42.7693 84.3665 51.1732 86.8378 60.3836 87.3692L60.6167 83.3284ZM62.5236 85.4528C62.5236 85.4224 62.5237 85.3919 62.5239 85.3613L58.4764 85.3363C58.4762 85.375 58.4761 85.4138 58.4761 85.4528H62.5236ZM100.513 109.048C89.7915 109.048 80.1796 106.262 73.3107 101.864C66.4193 97.4514 62.5236 91.6013 62.5236 85.4528H58.4761C58.4761 93.4532 63.5377 100.413 71.1282 105.272C78.7413 110.147 89.136 113.096 100.513 113.096V109.048ZM120.653 105.428C114.825 107.715 107.928 109.048 100.513 109.048V113.096C108.401 113.096 115.803 111.679 122.132 109.196L120.653 105.428ZM152.894 115.109C140.47 115.109 129.564 111.37 122.672 105.744L120.113 108.879C127.871 115.212 139.74 119.156 152.894 119.156V115.109ZM184.469 104.568C177.711 110.835 166.181 115.109 152.894 115.109V119.156C166.94 119.156 179.542 114.657 187.221 107.535L184.469 104.568ZM209.64 109.048C201 109.048 193.068 107.238 186.712 104.223L184.978 107.88C191.923 111.174 200.455 113.096 209.64 113.096V109.048ZM247.63 85.4528C247.63 91.6013 243.734 97.4514 236.843 101.864C229.974 106.262 220.362 109.048 209.64 109.048V113.096C221.017 113.096 231.412 110.147 239.025 105.272C246.616 100.413 251.677 93.4532 251.677 85.4528H247.63Z" fill="#0F0F1C"/>
    <path fill-rule="evenodd" clip-rule="evenodd" d="M227.568 85.4528C227.568 85.4179 227.568 85.3831 227.568 85.3482C245.413 84.3187 259.879 75.7881 263.217 64.7187C263.694 63.1373 263.944 61.5042 263.944 59.8337C263.944 46.4697 247.962 35.4957 227.568 34.3191L227.568 34.2862L227.568 34.2152C227.568 20.0663 209.654 8.59625 187.555 8.59625C178.642 8.59625 170.41 10.4619 163.76 13.6165C156.541 6.92234 144.475 2.53564 130.809 2.53564C118.02 2.53564 106.632 6.37718 99.3069 12.3563C93.2286 9.97123 86.0789 8.59625 78.4277 8.59625C56.3289 8.59625 38.4144 20.0663 38.4144 34.2152C38.4144 34.2499 38.4145 34.2846 38.4147 34.3192C18.0205 35.4958 2.03858 46.4698 2.03857 59.8338C2.03857 61.2956 2.22981 62.7289 2.59713 64.1238C2.64588 64.309 2.69774 64.4935 2.75266 64.6773C6.06656 75.767 20.5473 84.318 38.4147 85.3488C38.4145 85.3834 38.4144 85.4181 38.4144 85.4528C38.4144 99.6017 56.3289 111.072 78.4277 111.072C86.079 111.072 93.2286 109.697 99.3069 107.312C106.632 113.291 118.02 117.132 130.809 117.132C144.475 117.132 156.541 112.746 163.76 106.051C170.41 109.206 178.642 111.072 187.555 111.072C209.654 111.072 227.568 99.6017 227.568 85.4528Z" fill="#EF3F28"/>
    <path d="M227.568 85.3482L227.451 83.3278L225.532 83.4385L225.544 85.3606L227.568 85.3482ZM263.217 64.7187L261.28 64.1344V64.1344L263.217 64.7187ZM227.568 34.3191L225.544 34.3088L225.534 36.2289L227.451 36.3395L227.568 34.3191ZM227.568 34.2862L229.592 34.2965L229.592 34.2905L227.568 34.2862ZM227.568 34.2152L229.592 34.2196V34.2152H227.568ZM163.76 13.6165L162.384 15.1004L163.389 16.0324L164.627 15.445L163.76 13.6165ZM99.3069 12.3563L98.5676 14.2402L99.6696 14.6726L100.587 13.9241L99.3069 12.3563ZM38.4147 34.3192L38.5313 36.3396L40.4503 36.2289L40.4384 34.3067L38.4147 34.3192ZM2.03857 59.8338H0.0148079H2.03857ZM2.59713 64.1238L4.5542 63.6085L4.55418 63.6085L2.59713 64.1238ZM2.75266 64.6773L0.813613 65.2567L0.813614 65.2567L2.75266 64.6773ZM38.4147 85.3488L40.4384 85.3613L40.4503 83.4391L38.5313 83.3284L38.4147 85.3488ZM38.4144 85.4528H40.4381H38.4144ZM78.4277 111.072V113.096V111.072ZM99.3069 107.312L100.587 105.744L99.6696 104.995L98.5676 105.428L99.3069 107.312ZM163.76 106.051L164.627 104.223L163.389 103.636L162.384 104.568L163.76 106.051ZM187.555 111.072V109.048V111.072ZM225.544 85.3606C225.544 85.3913 225.544 85.4221 225.544 85.4528H229.592C229.592 85.4138 229.592 85.3748 229.591 85.3358L225.544 85.3606ZM261.28 64.1344C259.803 69.0309 255.79 73.5724 249.815 77.0492C243.859 80.5147 236.097 82.829 227.451 83.3278L227.684 87.3686C236.883 86.838 245.277 84.3722 251.85 80.5476C258.404 76.7343 263.294 71.4758 265.155 65.3029L261.28 64.1344ZM261.92 59.8337C261.92 61.3002 261.701 62.7367 261.28 64.1344L265.155 65.3029C265.687 63.538 265.968 61.7082 265.968 59.8337H261.92ZM227.451 36.3395C237.339 36.91 246.058 39.8535 252.247 44.1665C258.448 48.488 261.92 54.0241 261.92 59.8337H265.968C265.968 52.2793 261.449 45.6464 254.561 40.8458C247.66 36.0366 238.19 32.9048 227.684 32.2987L227.451 36.3395ZM225.544 34.2759L225.544 34.3088L229.591 34.3294L229.592 34.2965L225.544 34.2759ZM225.544 34.2109L225.544 34.2818L229.592 34.2905L229.592 34.2196L225.544 34.2109ZM187.555 10.62C198.276 10.62 207.888 13.4064 214.757 17.8042C221.649 22.2166 225.544 28.0667 225.544 34.2152H229.592C229.592 26.2148 224.53 19.2554 216.94 14.3955C209.327 9.52115 198.932 6.57248 187.555 6.57248V10.62ZM164.627 15.445C170.983 12.4302 178.915 10.62 187.555 10.62V6.57248C178.37 6.57248 169.838 8.49361 162.892 11.788L164.627 15.445ZM130.809 4.55941C144.096 4.55941 155.625 8.8332 162.384 15.1004L165.136 12.1326C157.457 5.01148 144.854 0.511878 130.809 0.511878V4.55941ZM100.587 13.9241C107.479 8.29835 118.384 4.55941 130.809 4.55941V0.511878C117.655 0.511878 105.785 4.456 98.0271 10.7885L100.587 13.9241ZM78.4277 10.62C85.842 10.62 92.7394 11.9533 98.5676 14.2402L100.046 10.4724C93.7178 7.98919 86.3158 6.57248 78.4277 6.57248V10.62ZM40.4381 34.2152C40.4381 28.0667 44.3338 22.2166 51.2252 17.8042C58.0941 13.4064 67.7061 10.62 78.4277 10.62V6.57248C67.0505 6.57248 56.6559 9.52115 49.0428 14.3955C41.4522 19.2554 36.3906 26.2148 36.3906 34.2152H40.4381ZM40.4384 34.3067C40.4382 34.2762 40.4381 34.2457 40.4381 34.2152H36.3906C36.3906 34.2541 36.3907 34.2929 36.391 34.3317L40.4384 34.3067ZM4.06234 59.8338C4.06234 54.0241 7.53489 48.4881 13.7359 44.1665C19.9247 39.8536 28.643 36.9101 38.5313 36.3396L38.2981 32.2988C27.7922 32.9049 18.3224 36.0367 11.4217 40.8459C4.5332 45.6465 0.0148089 52.2794 0.0148079 59.8338H4.06234ZM4.55418 63.6085C4.23009 62.3777 4.06234 61.1175 4.06234 59.8338H0.0148079C0.0148077 61.4737 0.229526 63.08 0.640075 64.6392L4.55418 63.6085ZM4.6917 64.0978C4.6431 63.9352 4.59726 63.7721 4.5542 63.6085L0.640061 64.6391C0.694503 64.8459 0.75237 65.0518 0.813613 65.2567L4.6917 64.0978ZM38.5313 83.3284C29.8742 82.8289 22.104 80.5094 16.1451 77.0366C10.1668 73.5526 6.15729 69.0023 4.6917 64.0978L0.813614 65.2567C2.66193 71.442 7.54967 76.7121 14.1071 80.5336C20.6839 84.3665 29.0878 86.8378 38.2981 87.3692L38.5313 83.3284ZM40.4381 85.4528C40.4381 85.4224 40.4382 85.3919 40.4384 85.3613L36.391 85.3363C36.3907 85.375 36.3906 85.4138 36.3906 85.4528H40.4381ZM78.4277 109.048C67.7061 109.048 58.0941 106.262 51.2252 101.864C44.3338 97.4514 40.4381 91.6013 40.4381 85.4528H36.3906C36.3906 93.4532 41.4522 100.413 49.0428 105.272C56.6559 110.147 67.0505 113.096 78.4277 113.096V109.048ZM98.5676 105.428C92.7394 107.715 85.8421 109.048 78.4277 109.048V113.096C86.3158 113.096 93.7178 111.679 100.046 109.196L98.5676 105.428ZM130.809 115.109C118.384 115.109 107.479 111.37 100.587 105.744L98.0271 108.879C105.785 115.212 117.655 119.156 130.809 119.156V115.109ZM162.384 104.568C155.625 110.835 144.096 115.109 130.809 115.109V119.156C144.854 119.156 157.457 114.657 165.136 107.535L162.384 104.568ZM187.555 109.048C178.915 109.048 170.983 107.238 164.627 104.223L162.892 107.88C169.838 111.174 178.37 113.096 187.555 113.096V109.048ZM225.544 85.4528C225.544 91.6013 221.649 97.4514 214.757 101.864C207.888 106.262 198.276 109.048 187.555 109.048V113.096C198.932 113.096 209.327 110.147 216.94 105.272C224.53 100.413 229.592 93.4532 229.592 85.4528H225.544Z" fill="#0F0F1C"/>
    <path d="M41.8374 50.5395C44.4474 50.2095 46.3674 50.2095 48.6174 50.2695C48.7374 53.6295 49.2174 58.6695 49.4874 61.9695C50.3274 58.0395 51.4974 53.9895 52.7274 50.0295C54.4974 49.7595 57.1974 49.6095 59.1774 49.8495C56.6274 56.9895 54.4074 64.3995 52.6074 71.4495C50.5374 71.3595 47.8974 71.5095 45.8574 71.7795C45.6174 69.0495 45.1074 64.6695 44.7774 61.2195C43.6374 64.8495 42.7674 68.2095 41.9274 71.6295C39.9174 71.5695 38.3874 71.5995 36.4374 71.7195C37.8774 65.0595 39.7074 57.3795 41.8374 50.5395ZM65.0564 59.4795C67.0664 59.1795 70.3064 59.2095 72.1064 59.2695C71.6864 60.7995 71.3264 61.9395 70.7864 63.4695C69.0164 63.3495 65.5664 63.3795 63.8264 63.4995C63.5264 64.5495 63.1964 65.5095 62.8664 66.5595C64.8164 66.5595 68.3564 66.4395 70.5764 66.1695C69.8564 68.0295 69.1064 69.7395 68.1464 71.5695C64.1864 71.8095 58.9364 71.7195 56.1164 71.7195C57.8564 64.6395 59.3864 57.8895 61.8164 50.4495C65.9564 49.8195 71.9564 49.7595 76.0664 49.8795C75.2864 51.8295 74.4764 53.9295 73.7264 55.9095C71.7464 55.8195 68.2364 55.9095 66.1064 56.1195C65.7464 57.1995 65.3864 58.3695 65.0564 59.4795ZM77.5648 50.4495C79.5448 50.2395 81.5548 50.1495 83.7748 50.2395C83.1748 53.5095 82.7848 57.6495 82.5448 60.9195C84.3748 57.5895 86.2648 53.8995 87.9748 50.5995C89.0848 50.4795 90.5548 50.4495 91.9048 50.4795C91.6648 53.6595 91.5448 57.6495 91.5448 60.4995C93.3448 57.0795 94.9948 53.3595 96.4348 50.0595C98.6548 49.9695 101.175 49.9395 103.515 50.0895C99.4048 57.2595 95.7148 64.3395 91.0648 71.6595C89.2648 71.5695 87.9148 71.6295 86.5048 71.7495C86.5048 69.4095 86.5048 66.0795 86.7148 62.5395C85.2148 65.3595 82.9348 68.9895 81.2848 71.7495C79.6648 71.6895 78.6748 71.6895 77.0248 71.8695C76.9048 65.1495 77.0548 57.7395 77.5648 50.4495ZM124.739 56.8695C119.699 55.3695 114.209 58.3995 113.249 63.7095C113.039 65.0595 113.639 66.6195 115.349 67.0395C117.299 67.4295 119.309 67.3395 123.389 65.3595C122.399 67.8795 122.009 68.7195 120.569 70.9695C119.099 71.7495 117.239 72.0495 115.829 72.1095C110.099 72.1695 106.709 68.1795 107.369 62.8395C108.119 56.9295 112.439 52.2495 117.689 50.6895C121.169 49.6695 124.709 49.9095 127.259 50.2395C126.029 53.4495 125.669 54.1695 124.739 56.8695ZM138.202 57.1395C135.682 57.2295 133.372 59.4495 132.922 62.0895C132.472 64.8195 134.002 66.7395 136.522 66.6795C139.102 66.6195 141.592 64.4895 142.012 61.8495C142.462 59.1795 140.782 57.0795 138.202 57.1395ZM139.612 49.8195C146.122 49.9095 149.122 54.2895 148.102 60.7395C147.052 67.2495 141.982 71.9595 135.712 72.1095C130.042 72.1095 126.712 68.3895 126.952 63.0195C127.342 54.4395 133.642 50.0895 139.612 49.8195ZM155.041 66.4395C156.991 66.4395 160.381 66.1695 162.631 65.8995C161.911 67.7295 161.161 69.5595 160.141 71.4195C156.091 71.6895 150.991 71.6895 148.081 71.6895C149.881 64.4595 151.561 57.8295 154.021 50.2395C156.571 49.7895 158.641 49.6995 161.191 49.7595C158.311 56.7495 156.871 60.9195 155.041 66.4395ZM170.012 66.4395C171.962 66.4395 175.352 66.1695 177.602 65.8995C176.882 67.7295 176.132 69.5595 175.112 71.4195C171.062 71.6895 165.962 71.6895 163.052 71.6895C164.852 64.4595 166.532 57.8295 168.992 50.2395C171.542 49.7895 173.612 49.6995 176.162 49.7595C173.282 56.7495 171.842 60.9195 170.012 66.4395ZM182.728 71.4495C180.838 71.2995 179.008 71.2995 177.328 71.4495C180.478 64.5195 183.838 57.0195 187.408 50.1195C190.258 49.6695 192.778 49.6695 195.418 49.7595C195.478 57.0495 195.658 64.6095 195.328 71.6295C193.528 71.5695 191.518 71.5095 189.718 71.7195C189.808 70.4895 189.838 69.1695 189.868 67.9095C188.158 67.9695 186.538 67.9695 184.498 68.1195C183.928 69.1995 183.388 70.3395 182.728 71.4495ZM186.208 62.7795C187.738 62.7195 189.118 62.6895 190.738 62.8395C190.768 60.3495 190.618 57.5895 190.468 55.0395C188.938 57.5595 187.558 60.2895 186.208 62.7795ZM206.158 58.7595C209.098 58.9395 210.748 57.8895 211.228 56.2695C211.708 54.8295 210.778 53.8095 207.538 54.6495C207.058 56.0595 206.608 57.3495 206.158 58.7595ZM203.158 67.2195C206.608 67.7295 208.558 66.5595 209.068 64.8495C209.518 63.3495 207.988 62.3595 204.478 62.9295C204.028 64.4295 203.608 65.7195 203.158 67.2195ZM196.948 71.1795C198.898 64.1895 200.638 57.7995 203.128 50.5395C204.988 49.9995 207.568 49.5795 209.578 49.5195C210.748 49.5195 212.068 49.5795 213.208 49.8795C215.578 50.5095 217.468 52.1595 217.048 55.1295C216.718 57.4995 214.288 59.9295 211.378 60.7695C213.748 61.0695 215.968 62.6295 215.488 65.4495C215.068 67.9695 213.298 69.8595 210.688 70.9095C208.498 71.7795 205.618 71.9895 203.848 72.0195C200.638 72.0795 198.448 71.5695 196.948 71.1795ZM219.398 64.9095C219.998 60.1995 221.648 52.6695 222.608 50.2995C224.978 49.7895 227.648 49.9095 229.868 50.0895C227.228 55.0395 224.918 61.1595 223.598 64.7895C221.978 64.6695 220.778 64.6995 219.398 64.9095ZM221.498 66.1095C223.328 66.1095 224.558 67.4295 224.168 69.1095C223.808 70.7895 222.008 72.1095 220.148 72.1095C218.258 72.0495 217.058 70.6995 217.388 69.0795C217.808 67.3995 219.608 66.0495 221.498 66.1095Z" fill="#0F0F1C"/>
</svg>
