<?xml version="1.0" encoding="utf-8"?>
<!-- Generator: Adobe Illustrator 28.0.0, SVG Export Plug-In . SVG Version: 6.00 Build 0)  -->
<svg version="1.1" id="Layer_1" xmlns="http://www.w3.org/2000/svg" xmlns:xlink="http://www.w3.org/1999/xlink" x="0px" y="0px"
	 viewBox="0 0 30 30" style="enable-background:new 0 0 30 30;" xml:space="preserve">
<style type="text/css">
	.st0{fill:#FFFFFF;}
	.st1{fill:#231F20;}
</style>
<path class="st0" d="M24.3,3.5c-1.6,3.3-3.1,6.5-4.7,9.8c-0.5,0.9-0.5,1.5,0.3,2.4c2.4,2.7,4.7,5.6,6.9,8.5
	c-1.5-0.7-3.1-1.4-4.6-2.2c-1.7-0.8-3.5-1.6-5.2-2.6c-0.9-0.5-1.5-0.4-2.4,0.3C11.8,22.2,9,24.5,6,26.6c1.6-3.2,3-6.5,4.7-9.7
	c0.5-1.1,0.4-1.7-0.3-2.6C8.3,12,6.2,9.5,4.1,7C3.9,6.7,3.7,6.4,3.3,5.8c3.6,1.7,6.9,3.3,10.2,4.9c0.9,0.4,1.4,0.3,2.1-0.3
	c2.8-2.4,5.6-4.7,8.4-7.1C24.1,3.4,24.2,3.5,24.3,3.5L24.3,3.5z"/>
<path class="st1" d="M24.1,3.4c0,0,0.1,0.1,0.2,0.1c-1.6,3.3-3.1,6.5-4.7,9.8c-0.5,0.9-0.5,1.5,0.3,2.4c2.4,2.7,4.7,5.6,6.9,8.5
	c-1.5-0.7-3.1-1.4-4.6-2.2c-1.7-0.8-3.5-1.6-5.2-2.6c-0.4-0.2-0.7-0.3-1.1-0.3c-0.4,0-0.8,0.2-1.3,0.6C11.8,22.2,9,24.4,6,26.6
	c1.6-3.2,3-6.5,4.7-9.7c0.5-1.1,0.4-1.7-0.3-2.6C8.3,11.9,6.2,9.5,4.1,7C3.9,6.7,3.7,6.4,3.3,5.8c3.6,1.7,6.9,3.3,10.2,4.9
	c0.4,0.2,0.7,0.3,0.9,0.3c0.4,0,0.8-0.2,1.2-0.5C18.5,8.1,21.3,5.7,24.1,3.4 M24.1,1.5c-0.4,0-0.9,0.1-1.2,0.4l-2.3,1.9
	c-2.1,1.7-4.1,3.5-6.2,5.2c0,0,0,0,0,0C12,7.9,9.6,6.7,7.1,5.5c-1-0.5-1.9-0.9-2.9-1.4C3.9,4,3.6,3.9,3.3,3.9
	c-0.5,0-1.1,0.2-1.4,0.7C1.3,5.2,1.3,6.2,1.8,6.9C1.9,7.1,2,7.3,2.1,7.4C2.3,7.8,2.5,8,2.7,8.2L4.1,10c1.6,1.9,3.2,3.8,4.8,5.7
	c0.1,0.1,0.2,0.2,0.2,0.2c0,0,0,0.1-0.1,0.2c-1.2,2.3-2.3,4.7-3.4,7c-0.4,0.9-0.9,1.8-1.3,2.7c-0.4,0.8-0.2,1.7,0.5,2.3
	c0.4,0.3,0.8,0.4,1.2,0.4c0.4,0,0.8-0.1,1.1-0.4c2.9-2.1,5.7-4.4,8.7-7c0,0,0.1-0.1,0.1-0.1c0,0,0.1,0,0.1,0.1
	c1.4,0.7,2.8,1.4,4.1,2l1.2,0.6c1.1,0.5,2.1,1,3.2,1.5l1.4,0.7c0.3,0.1,0.5,0.2,0.8,0.2c0.6,0,1.1-0.2,1.5-0.7
	c0.5-0.7,0.6-1.6,0.1-2.3c-2.2-3-4.5-5.8-7-8.7c0,0,0-0.1-0.1-0.1c0,0,0-0.1,0.1-0.2c1.2-2.4,2.3-4.8,3.5-7.1
	c0.4-0.9,0.9-1.8,1.3-2.7c0.4-0.8,0.2-1.7-0.5-2.3L25.4,2l-0.1-0.1C24.9,1.6,24.5,1.5,24.1,1.5L24.1,1.5z"/>
</svg>
